<svg width="509" height="645" viewBox="0 0 509 645" fill="none" xmlns="http://www.w3.org/2000/svg">
<path d="M272.748 614.377L272.192 639.951L342.58 638.248C319.892 615.456 284.933 630.356 284.565 630.515L282.189 631.554L277.438 613.739C275.861 613.964 274.298 614.176 272.748 614.377Z" fill="#171617"/>
<path d="M184.345 464.296C184.645 463.137 184.963 461.983 185.318 460.843C185.541 460.171 185.748 459.508 185.979 458.831C175.589 468.127 155.896 486.278 148.241 496.927C138.684 510.223 138.998 583.811 139.119 596.079C139.711 596.354 140.319 596.633 140.961 596.919C141.528 581.831 144.431 511.545 149.653 501.971C154.818 492.504 179.082 469.278 184.345 464.296Z" fill="#F1F2F2"/>
<path d="M162.963 609.37L166.672 627.294L162.694 625.504C162.605 625.464 153.444 621.418 141.634 620.924C127.726 620.335 116.154 624.694 107.174 633.87L176.73 635.553L168.283 610.738C166.448 610.293 164.675 609.835 162.963 609.37Z" fill="#171617"/>
<path d="M218.559 551.754C217.071 551.754 215.861 552.964 215.861 554.452C215.861 555.94 217.071 557.15 218.559 557.15C220.047 557.15 221.257 555.94 221.257 554.452C221.257 552.964 220.047 551.754 218.559 551.754Z" fill="#C9C7C8"/>
<path d="M158.527 548.002C157.039 548.002 155.829 549.212 155.829 550.7C155.829 552.188 157.039 553.398 158.527 553.398C160.015 553.398 161.225 552.188 161.225 550.7C161.225 549.212 160.015 548.002 158.527 548.002Z" fill="#C9C7C8"/>
<path d="M169.314 498.288C167.826 498.288 166.616 499.499 166.616 500.986C166.616 502.474 167.826 503.684 169.314 503.684C170.802 503.684 172.012 502.474 172.012 500.986C172.012 499.498 170.801 498.288 169.314 498.288Z" fill="#C9C7C8"/>
<path d="M124.037 387.887C130.731 382.309 137.283 377.6 143.678 373.763C134.908 367.392 109.435 348.627 97.2572 336.867L94.9182 334.995C90.8302 344.138 76.7752 373.739 60.4302 387.377C61.3072 388.161 62.4602 389.175 63.8252 390.336C64.1002 390.144 64.4232 389.914 64.8002 389.644C65.4442 389.165 66.2342 388.586 67.1132 387.879C67.5522 387.524 68.0202 387.146 68.5132 386.748C68.9952 386.334 69.5012 385.899 70.0292 385.445C71.1012 384.552 72.1792 383.488 73.3622 382.405C73.9292 381.838 74.5112 381.255 75.1072 380.66C75.7022 380.063 76.3162 379.458 76.8962 378.8C77.4882 378.152 78.0892 377.494 78.6982 376.827C79.3152 376.166 79.8722 375.44 80.4712 374.739C81.0542 374.025 81.6742 373.328 82.2412 372.585C82.8042 371.839 83.3692 371.09 83.9342 370.34C85.1042 368.866 86.0882 367.264 87.1442 365.74C87.3992 365.354 87.6712 364.978 87.9102 364.587C88.1452 364.193 88.3792 363.801 88.6122 363.411C89.0782 362.63 89.5382 361.859 89.9912 361.1C90.2152 360.719 90.4492 360.347 90.6592 359.967C90.8592 359.582 91.0572 359.2 91.2532 358.822C91.6452 358.066 92.0292 357.326 92.4022 356.606C93.1872 355.18 93.7812 353.765 94.3532 352.466C94.9072 351.161 95.4932 349.989 95.8772 348.901C96.2722 347.815 96.6162 346.869 96.9002 346.089C97.4682 344.527 97.7932 343.634 97.7932 343.634C97.7932 343.634 97.5352 344.548 97.0822 346.147C96.8552 346.948 96.5802 347.921 96.2642 349.038C95.9582 350.159 95.4602 351.37 94.9982 352.724C94.5192 354.072 94.0242 355.545 93.3402 357.037C93.0162 357.792 92.6842 358.567 92.3442 359.36C92.1742 359.757 92.0022 360.158 91.8282 360.563C91.6432 360.963 91.4352 361.355 91.2372 361.757C90.8352 362.559 90.4262 363.375 90.0122 364.201C89.8052 364.614 89.5962 365.03 89.3862 365.448C89.1722 365.864 88.9252 366.263 88.6952 366.675C87.7392 368.3 86.8502 370.01 85.7702 371.599C85.2492 372.407 84.7282 373.215 84.2082 374.019C83.6842 374.821 83.1052 375.58 82.5602 376.355C81.9992 377.118 81.4802 377.906 80.8982 378.63C80.3232 379.361 79.7542 380.083 79.1952 380.793C78.6472 381.514 78.0612 382.183 77.4932 382.844C76.9232 383.504 76.3662 384.15 75.8232 384.778C74.6852 385.988 73.6462 387.172 72.6002 388.183C72.0842 388.697 71.5902 389.189 71.1192 389.657C70.6342 390.112 70.1732 390.543 69.7412 390.949C68.8732 391.758 68.0822 392.434 67.4312 392.995C67.3592 393.055 67.2962 393.108 67.2272 393.164C73.4202 398.192 81.9992 404.502 89.8642 408.022C101.703 403.484 113.469 396.694 124.037 387.887Z" fill="#F1F2F2"/>
<path d="M197.634 429.663C214.477 411.2 220.756 391.814 220.021 384.591C209.572 382.727 201.982 377.127 201.17 370.196C199.112 368.914 192.936 365.682 182.979 365.675C182.97 365.675 182.959 365.675 182.949 365.675C171.399 365.675 152.306 370.125 126.887 391.308C105.412 409.203 79.0362 419.04 56.4762 419.041C45.3692 419.042 35.1902 416.659 26.9712 411.679C17.2432 405.786 7.1792 394.624 5.2352 373.513C3.8562 388.872 5.07321 407.472 14.2392 423.864C25.7462 444.445 47.5202 457.741 78.9552 463.383C144.69 475.185 181.527 447.32 197.634 429.663Z" fill="#222222"/>
<path d="M222.311 503.447C220.823 503.447 219.613 504.657 219.613 506.145C219.613 507.633 220.823 508.843 222.311 508.843C223.799 508.843 225.009 507.633 225.009 506.145C225.009 504.657 223.799 503.447 222.311 503.447Z" fill="#C9C7C8"/>
<path d="M227.705 357.118C215.692 357.118 205.543 362.542 205.543 368.962C205.543 375.381 215.692 380.805 227.705 380.805C239.718 380.805 249.867 375.381 249.867 368.962C249.866 362.541 239.718 357.118 227.705 357.118Z" fill="#F68D63"/>
<path d="M229.535 471.39C229.536 471.382 229.535 471.374 229.536 471.366C229.533 471.37 229.529 471.371 229.527 471.375C229.517 471.391 229.509 471.408 229.502 471.427L229.535 471.39Z" fill="#C9C7C8"/>
<path d="M446.206 356.823C446.961 363.246 446.606 369.632 445.117 375.866C441.827 389.648 432.914 402.6 420.021 412.337C393.144 432.631 351.125 437.238 327.327 409.818C305.57 384.749 286.411 375.562 274.171 372.268C264.164 369.576 257.039 370.283 254.157 370.788C253.071 377.011 246.485 382.077 237.34 384.192C241.248 391.796 255.907 418.553 279.408 441.116C316.048 476.293 355.692 485.121 397.234 467.36C427.784 454.299 446.366 435.978 452.465 412.907C457.767 392.85 452.701 372.398 446.206 356.823Z" fill="#222222"/>
<path d="M491.665 181.759C483.734 174.572 470.895 157.799 454.641 136.564C416.687 86.9796 359.329 12.0476 320.226 5.96463C294.62 1.98363 244.529 6.40864 195.053 25.5386C140.453 46.6506 105.404 79.0766 96.3612 116.844C87.7282 152.901 96.4382 185.302 122.249 213.146C137.846 229.972 155.248 239.905 161.505 243.168C166.252 216.759 172.406 190.536 180.324 169.119C179.786 169.12 179.249 169.122 178.714 169.124C178.029 169.132 177.347 169.116 176.669 169.078C175.991 169.048 175.315 169.019 174.642 168.989C173.972 168.93 173.305 168.872 172.643 168.814C171.317 168.716 170.017 168.52 168.739 168.345C166.19 167.948 163.745 167.461 161.467 166.857C159.182 166.279 157.064 165.589 155.134 164.9C151.282 163.489 148.214 161.992 146.142 160.822C144.062 159.666 142.973 158.849 142.973 158.849C142.973 158.849 143.292 158.961 143.89 159.172C144.485 159.384 145.372 159.66 146.49 160.013C147.608 160.37 148.985 160.738 150.548 161.176C152.121 161.59 153.902 162.013 155.845 162.433C157.792 162.841 159.901 163.257 162.143 163.588C164.38 163.952 166.752 164.21 169.2 164.436C171.653 164.62 174.185 164.772 176.759 164.767C178.045 164.815 179.34 164.708 180.639 164.709C181.104 164.685 181.571 164.659 182.037 164.633C182.083 164.516 182.128 164.398 182.174 164.282L182.923 164.579C183.461 164.545 184 164.51 184.538 164.464C187.134 164.234 189.725 163.922 192.25 163.457C192.882 163.343 193.511 163.23 194.137 163.117C194.758 162.98 195.377 162.844 195.992 162.709C196.607 162.571 197.218 162.434 197.825 162.297C198.426 162.135 199.022 161.975 199.614 161.816C200.207 161.657 200.794 161.5 201.377 161.344C201.952 161.162 202.521 160.981 203.084 160.802C203.649 160.626 204.209 160.452 204.761 160.28C205.31 160.097 205.84 159.883 206.374 159.698C208.518 158.972 210.478 158.109 212.324 157.366C213.227 156.95 214.093 156.552 214.916 156.173C215.75 155.808 216.537 155.448 217.25 155.06C217.974 154.691 218.644 154.33 219.282 154.023C219.6 153.866 219.904 153.716 220.196 153.572C220.478 153.413 220.748 153.262 221.003 153.119C222.021 152.536 222.848 152.109 223.403 151.803C223.966 151.506 224.266 151.348 224.266 151.348C224.266 151.348 224.018 151.578 223.554 152.01C223.082 152.432 222.403 153.073 221.503 153.851C220.627 154.663 219.459 155.504 218.139 156.515C217.485 157.031 216.757 157.53 215.979 158.045C215.197 158.557 214.374 159.095 213.516 159.657C211.737 160.674 209.813 161.813 207.663 162.795C207.131 163.051 206.594 163.32 206.037 163.562C205.476 163.793 204.908 164.027 204.333 164.263C203.756 164.497 203.174 164.733 202.585 164.971C201.985 165.177 201.378 165.386 200.767 165.596C200.154 165.803 199.535 166.011 198.912 166.222C198.278 166.398 197.64 166.575 196.999 166.753C196.355 166.928 195.708 167.104 195.057 167.281C194.397 167.421 193.734 167.561 193.069 167.703C190.495 168.277 187.835 168.614 185.172 168.877C174.478 197.058 166.962 234.184 161.771 269.029C169.239 265.797 187.873 258.943 213.248 258.089C232.41 257.448 251.407 260.399 269.72 266.872C291.826 274.685 312.967 287.685 332.604 305.499C335.7 293.049 339.296 281.872 342.709 272.526C350.889 250.123 359.48 233.978 362.526 228.522C361.675 227.647 360.897 226.711 360.125 225.785C358.55 223.89 357.138 221.913 355.896 219.927C354.628 217.957 353.587 215.943 352.65 214.022C351.76 212.075 350.986 210.21 350.4 208.443C349.802 206.682 349.354 205.038 349.026 203.569C348.672 202.108 348.476 200.808 348.331 199.742C348.298 199.517 348.272 199.307 348.249 199.101C348.103 199.108 347.963 199.115 347.817 199.122C347.129 199.169 346.435 199.161 345.737 199.153C345.038 199.148 344.334 199.143 343.625 199.138C342.206 199.128 340.768 199.117 339.313 199.106C338.585 199.1 337.852 199.095 337.115 199.089C336.378 199.088 335.639 199.01 334.895 198.974C333.407 198.876 331.903 198.776 330.384 198.676C329.625 198.623 328.862 198.569 328.095 198.515L326.942 198.434C326.558 198.397 326.175 198.341 325.79 198.295C324.251 198.102 322.699 197.908 321.137 197.712C320.355 197.614 319.571 197.516 318.783 197.417C317.995 197.322 317.204 197.226 316.421 197.068C313.284 196.474 310.078 195.995 306.908 195.228C305.324 194.839 303.734 194.449 302.139 194.057L299.743 193.468L297.374 192.756C295.794 192.278 294.21 191.799 292.625 191.32L291.436 190.96L290.266 190.54L287.927 189.696C286.374 189.115 284.809 188.565 283.269 187.959C281.746 187.309 280.224 186.659 278.705 186.011L276.43 185.039C275.678 184.703 274.946 184.327 274.204 183.973C272.726 183.255 271.253 182.539 269.786 181.826C263.999 178.813 258.456 175.553 253.347 172.028C250.751 170.327 248.311 168.493 245.931 166.693C244.726 165.813 243.616 164.835 242.476 163.928C241.353 162.999 240.212 162.121 239.161 161.165C234.834 157.485 231.016 153.707 227.592 150.141C224.215 146.527 221.236 143.113 218.779 139.941C216.285 136.8 214.26 133.951 212.668 131.557C211.05 129.182 209.919 127.224 209.144 125.898C208.376 124.566 208.007 123.834 208.007 123.834C208.007 123.834 208.449 124.524 209.346 125.768C210.24 127.014 211.594 128.808 213.379 131.036C215.152 133.273 217.411 135.903 220.072 138.844C220.744 139.573 221.437 140.326 222.151 141.101C222.886 141.855 223.642 142.631 224.418 143.428C225.188 144.229 225.992 145.036 226.831 145.846C227.667 146.659 228.509 147.503 229.392 148.341C231.196 149.979 233.022 151.738 235.039 153.417C236.044 154.26 237.022 155.165 238.074 156.017C239.124 156.869 240.191 157.734 241.272 158.612C245.65 162.05 250.393 165.509 255.505 168.765C256.142 169.175 256.782 169.586 257.424 169.999C258.062 170.418 258.71 170.827 259.381 171.204C260.709 171.979 262.047 172.76 263.393 173.545C264.722 174.359 266.136 175.041 267.524 175.784C268.923 176.506 270.294 177.3 271.724 177.99C273.158 178.673 274.598 179.358 276.042 180.045C276.766 180.384 277.481 180.745 278.216 181.066L280.438 181.994C281.921 182.613 283.406 183.234 284.893 183.855C286.397 184.433 287.924 184.955 289.439 185.508L291.71 186.343L292.845 186.761L293.999 187.12C295.538 187.599 297.075 188.077 298.61 188.555L300.91 189.268L303.239 189.859C304.79 190.253 306.335 190.646 307.875 191.037C309.406 191.468 310.974 191.708 312.516 192.031C314.059 192.349 315.595 192.665 317.121 192.98C317.882 193.154 318.651 193.265 319.417 193.376C320.183 193.491 320.947 193.605 321.708 193.719C323.23 193.947 324.742 194.174 326.241 194.399C329.246 194.804 332.227 194.976 335.131 195.311C335.859 195.376 336.58 195.482 337.302 195.511C338.024 195.545 338.742 195.579 339.455 195.612C340.883 195.679 342.293 195.746 343.684 195.812C344.38 195.845 345.072 195.878 345.758 195.91C346.445 195.946 347.126 195.981 347.804 195.961C349.159 195.954 350.493 195.947 351.805 195.941C353.118 195.942 354.41 195.943 355.677 195.943C356.311 195.942 356.939 195.941 357.562 195.94C358.183 195.907 358.798 195.874 359.406 195.842C364.272 195.553 368.758 195.452 372.702 194.965C376.651 194.549 380.123 194.323 382.94 193.841C385.767 193.425 388.001 193.146 389.522 192.935C391.045 192.73 391.857 192.62 391.857 192.62C391.857 192.62 391.062 192.812 389.57 193.172C388.077 193.526 385.891 194.076 383.092 194.714C380.307 195.437 376.865 195.98 372.917 196.656C370.941 196.973 368.847 197.411 366.609 197.62C364.373 197.866 362.022 198.125 359.568 198.395C358.954 198.462 358.333 198.529 357.706 198.597C357.077 198.633 356.442 198.669 355.801 198.706C354.517 198.776 353.209 198.848 351.879 198.921C350.939 198.967 349.974 199.015 349.012 199.062C349.069 199.214 349.124 199.363 349.186 199.526C349.558 200.515 350.053 201.698 350.637 203.037C351.22 204.376 351.949 205.853 352.765 207.439C353.574 209.03 354.546 210.697 355.59 212.437C356.676 214.154 357.834 215.948 359.154 217.714C359.793 218.611 360.509 219.474 361.19 220.376C361.554 220.809 361.92 221.245 362.289 221.682C362.651 222.125 363.017 222.566 363.41 222.989C363.795 223.418 364.181 223.849 364.569 224.281C364.961 224.709 365.379 225.114 365.778 225.54C366.569 226.397 367.426 227.195 368.276 228C369.101 228.831 370.017 229.566 370.879 230.352C371.769 231.107 372.68 231.831 373.569 232.569C374.493 233.265 375.409 233.955 376.315 234.637C377.25 235.283 378.174 235.921 379.083 236.548C380.018 237.142 380.937 237.725 381.837 238.297C382.74 238.867 383.665 239.357 384.539 239.885C385.407 240.427 386.302 240.858 387.148 241.32C387.999 241.773 388.81 242.24 389.624 242.615C391.238 243.395 392.703 244.172 394.053 244.747C395.396 245.336 396.552 245.921 397.539 246.305C398.52 246.706 399.284 247.061 399.81 247.287C400.334 247.525 400.613 247.651 400.613 247.651C400.613 247.651 400.31 247.61 399.743 247.534C399.178 247.445 398.341 247.34 397.285 247.154C396.22 246.999 394.951 246.712 393.497 246.358C392.028 246.045 390.412 245.553 388.644 245.003C387.751 244.75 386.862 244.381 385.921 244.041C384.987 243.686 384.011 243.335 383.045 242.887C382.074 242.45 381.067 242.016 380.063 241.518C379.065 241.009 378.054 240.468 377.024 239.919C376.023 239.316 375.006 238.703 373.976 238.083C372.978 237.411 371.966 236.729 370.965 236.015C369.996 235.258 368.986 234.533 368.036 233.728C367.304 233.076 366.549 232.446 365.822 231.783C361.783 239.171 351.238 259.687 342.43 287.36C431.99 332.907 475.549 283.612 486.788 267.37C496.903 252.753 502.923 235.575 503.74 219.002C504.524 202.998 500.124 189.426 491.665 181.759Z" fill="#F1F2F2"/>
<path d="M313.587 470.685C300.724 464.596 288.212 455.756 276.238 444.245C250.852 419.841 235.592 390.67 232.744 384.974C231.115 385.158 229.433 385.258 227.704 385.258C226.616 385.258 225.547 385.216 224.496 385.141C224.797 394.794 217.599 414.383 200.924 432.663C188.065 446.758 172.291 457.138 154.04 463.514C149.607 465.063 145.05 466.357 140.38 467.405C138.292 479.879 128.882 539.196 129.547 590.989C130.685 591.704 132.882 593.01 136.134 594.638C135.99 578.539 135.953 508.936 145.831 495.193C155.23 482.116 181.349 458.884 188.75 452.401C189.657 450.619 190.644 448.883 191.726 447.216C195.335 441.595 199.74 436.609 204.447 432.024C206.816 429.744 209.246 427.536 211.77 425.444C214.295 423.355 216.859 421.312 219.556 419.442C220.89 418.488 222.25 417.567 223.653 416.702C225.07 415.844 226.473 415.015 228.107 414.371C228.319 414.295 228.537 414.223 228.785 414.167C228.918 414.143 229.037 414.113 229.209 414.107C229.284 414.101 229.369 414.097 229.49 414.115L229.654 414.141C229.719 414.157 229.811 414.195 229.885 414.232L229.998 414.295C230.031 414.311 230.169 414.434 230.121 414.392L230.177 414.444C230.221 414.49 230.236 414.488 230.305 414.573C230.428 414.723 230.568 414.926 230.609 415.045C230.741 415.323 230.805 415.589 230.842 415.839C230.985 416.846 230.82 417.706 230.648 418.557C230.256 420.238 229.662 421.81 228.974 423.331C228.432 424.518 227.83 425.67 227.203 426.806C227.548 427.046 227.944 427.321 228.392 427.632C230.143 428.835 232.667 430.532 235.725 432.528C238.786 434.519 242.379 436.815 246.279 439.194C248.217 440.405 250.26 441.586 252.316 442.825C254.395 444.024 256.506 445.241 258.618 446.459C260.755 447.629 262.872 448.845 264.995 449.962C267.124 451.068 269.19 452.222 271.246 453.221C273.298 454.229 275.253 455.269 277.163 456.132C279.067 457.009 280.848 457.887 282.528 458.612C284.21 459.337 285.751 460.002 287.118 460.591C288.486 461.18 289.709 461.614 290.701 462.012C292.695 462.787 293.835 463.23 293.835 463.23C293.835 463.23 292.672 462.853 290.637 462.192C289.623 461.851 288.373 461.485 286.972 460.974C285.57 460.462 283.989 459.885 282.264 459.255C280.538 458.623 278.706 457.847 276.746 457.076C274.779 456.318 272.763 455.389 270.645 454.495C268.522 453.609 266.388 452.571 264.185 451.581C261.987 450.58 259.796 449.483 257.58 448.428C255.389 447.326 253.197 446.223 251.04 445.138C248.905 444.011 246.781 442.94 244.764 441.834C240.706 439.665 236.96 437.562 233.762 435.732C230.567 433.897 227.924 432.331 226.082 431.214C225.67 430.961 225.304 430.737 224.974 430.534C224.666 431.013 224.36 431.492 224.042 431.964C222.411 434.389 220.641 436.712 218.795 438.971C220.01 440.951 221.191 442.937 222.344 444.948C223.681 447.254 224.968 449.591 226.219 451.952C227.474 454.311 228.69 456.697 229.838 459.133C230.984 461.575 232.087 464.037 232.997 466.697C233.222 467.366 233.433 468.05 233.613 468.775C233.789 469.506 233.95 470.26 233.987 471.194C233.989 471.679 233.99 472.202 233.772 472.918C233.637 473.298 233.502 473.659 233.079 474.158L232.915 474.345L232.828 474.443L232.606 474.646C232.454 474.779 232.295 474.905 232.133 475.023C231.967 475.143 231.853 475.191 231.708 475.274C231.428 475.434 231.151 475.541 230.872 475.627C230.313 475.811 229.782 475.875 229.289 475.895C227.323 475.926 225.85 475.369 224.45 474.797C223.073 474.193 221.814 473.475 220.616 472.695C218.906 471.571 217.337 470.302 215.86 468.944L216.694 472.102C217.084 473.581 217.439 475.071 217.806 476.557C218.534 479.531 219.231 482.516 219.888 485.518C220.01 486.078 220.125 486.64 220.239 487.202C220.269 487.214 220.292 487.223 220.323 487.235C220.828 487.427 221.568 487.709 222.511 488.068C224.408 488.782 227.135 489.777 230.431 490.912C233.724 492.056 237.592 493.323 241.757 494.619C243.839 495.269 246.004 495.897 248.2 496.553C250.407 497.162 252.642 497.822 254.895 498.407C257.149 498.984 259.396 499.61 261.63 500.12C263.86 500.651 266.052 501.193 268.192 501.629C270.328 502.085 272.391 502.546 274.364 502.89C276.335 503.239 278.191 503.645 279.923 503.884C281.652 504.152 283.237 504.397 284.642 504.615C286.05 504.811 287.284 504.936 288.297 505.063C290.327 505.303 291.487 505.441 291.487 505.441C291.487 505.441 290.321 505.373 288.28 505.254C287.26 505.188 286.017 505.136 284.597 505.024C283.178 504.89 281.577 504.739 279.83 504.575C278.078 504.438 276.2 504.144 274.201 503.911C272.2 503.684 270.106 503.346 267.934 503.016C265.758 502.706 263.528 502.294 261.255 501.894C258.978 501.515 256.688 501.022 254.385 500.576C252.084 500.123 249.801 499.593 247.542 499.113C245.296 498.586 243.079 498.083 240.944 497.554C236.674 496.5 232.701 495.456 229.311 494.5C225.921 493.554 223.108 492.714 221.139 492.104L221.178 492.424C221.206 492.586 221.213 492.861 221.22 493.112L221.23 493.869C221.17 494.364 221.165 494.834 221.017 495.339C220.818 496.324 220.268 497.363 219.475 498.144C218.683 498.935 217.642 499.436 216.666 499.613C215.684 499.811 214.727 499.812 213.846 499.671C212.949 499.559 212.123 499.301 211.32 499.017C208.137 497.815 205.602 495.718 203.426 493.415C202.359 492.239 201.373 491.002 200.504 489.693C199.653 488.374 198.855 487.028 198.188 485.621C197.776 484.802 197.412 483.962 197.072 483.114C197.286 484.203 197.485 485.296 197.648 486.399C197.884 488.032 198.058 489.681 198.123 491.364C198.143 493.054 198.139 494.758 197.519 496.611C197.436 496.843 197.352 497.075 197.218 497.313L197.032 497.666L196.781 498.018C196.628 498.254 196.386 498.472 196.149 498.682C196.04 498.793 195.884 498.872 195.742 498.959L195.522 499.083L195.411 499.142C195.335 499.171 195.501 499.12 195.228 499.213L195.192 499.225L194.902 499.319C194.845 499.335 194.825 499.35 194.736 499.366L194.465 499.409C194.283 499.434 194.098 499.452 193.915 499.463C193.762 499.459 193.621 499.447 193.473 499.435C192.885 499.388 192.365 499.218 191.886 499.019C189.992 498.172 188.721 496.804 187.626 495.394C185.481 492.522 184.252 489.209 183.503 485.867C182.761 482.514 182.496 479.089 182.65 475.705C182.729 473.591 182.958 471.494 183.287 469.418C174.979 477.42 156.474 495.667 152.259 503.395C147.875 511.432 144.788 573.051 143.885 598.181C151.415 601.326 161.741 604.87 174.907 607.687C203.157 613.732 250.546 617.563 316.379 601.733C315.753 588.426 312.04 506.673 313.587 470.685ZM158.527 557.851C154.584 557.851 151.376 554.643 151.376 550.699C151.376 546.756 154.584 543.548 158.527 543.548C162.47 543.548 165.678 546.756 165.678 550.699C165.678 554.643 162.47 557.851 158.527 557.851ZM169.314 508.137C165.371 508.137 162.163 504.929 162.163 500.985C162.163 497.042 165.371 493.834 169.314 493.834C173.257 493.834 176.465 497.042 176.465 500.985C176.465 504.929 173.257 508.137 169.314 508.137ZM218.559 561.603C214.616 561.603 211.408 558.395 211.408 554.452C211.408 550.509 214.616 547.301 218.559 547.301C222.502 547.301 225.71 550.509 225.71 554.452C225.71 558.395 222.502 561.603 218.559 561.603ZM222.311 513.295C218.368 513.295 215.16 510.087 215.16 506.144C215.16 502.201 218.368 498.993 222.311 498.993C226.254 498.993 229.462 502.201 229.462 506.144C229.462 510.087 226.254 513.295 222.311 513.295Z" fill="#F1F2F2"/>
<path d="M93.5942 328.234C96.0932 323.792 99.6172 313.074 98.1822 309.611C98.0452 309.279 98.0062 309.279 97.7912 309.279C94.0762 309.279 88.7332 319.584 86.2922 326.549L85.6592 328.353L77.3442 326.795L77.3412 326.796C76.6512 327.419 75.6042 328.372 74.3512 329.568C72.0282 331.767 68.9982 334.788 66.0912 337.934C64.6302 339.501 63.2052 341.103 61.8962 342.63C61.2332 343.387 60.6112 344.135 60.0262 344.848C59.4352 345.558 58.8792 346.231 58.3852 346.867C57.8852 347.5 57.4272 348.081 57.0212 348.595C56.6272 349.119 56.2842 349.577 56.0022 349.953C55.4362 350.707 55.1132 351.138 55.1132 351.138C55.1132 351.138 55.3782 350.669 55.8422 349.848C56.0742 349.437 56.3562 348.938 56.6802 348.365C57.0182 347.8 57.3992 347.163 57.8142 346.468C58.2242 345.768 58.6922 345.025 59.1892 344.241C59.6822 343.453 60.2062 342.624 60.7702 341.781C61.8812 340.082 63.1012 338.291 64.3632 336.528C66.8712 332.989 69.5282 329.549 71.5912 327.016C72.6182 325.746 73.4982 324.703 74.1202 323.973C74.2042 323.877 74.2692 323.801 74.3432 323.716C73.5602 318.472 71.0172 307.113 66.4972 304.307C65.5072 303.692 64.5062 303.592 63.3472 303.996C62.3352 304.348 61.6182 305.045 61.0882 306.189C59.3632 309.918 59.8232 316.916 61.7872 322.977C62.8742 326.331 63.8022 329.479 64.3342 331.33C64.6622 332.469 63.7962 333.666 62.6152 333.585C62.1272 333.552 61.7192 333.311 61.4312 332.702C60.0582 329.804 59.1352 328.285 57.4672 324.163C55.8242 320.241 53.8212 316.906 51.7332 316.045C51.2032 315.826 50.4472 315.672 49.2912 316.423C43.6882 320.065 48.8552 335.007 52.2132 342.558L52.2252 342.582C52.6762 343.482 52.3302 344.62 51.4102 345.027C49.9712 345.663 48.5732 344.31 48.2562 343.605C45.1762 337.53 42.9962 337.791 42.5762 337.754C42.2972 337.733 42.0442 337.84 41.8552 337.969C41.9192 358.747 58.4282 376.225 62.0202 379.781C78.3182 362.8 93.5942 328.234 93.5942 328.234Z" fill="#FFD6A1"/>
<path d="M190.631 457.545C189.523 460.481 188.597 463.514 187.893 466.591C187.149 469.653 186.654 472.767 186.483 475.885C186.311 479 186.424 482.124 186.975 485.154C187.244 486.67 187.646 488.153 188.17 489.576C188.698 490.993 189.325 492.378 190.146 493.593C190.951 494.797 191.967 495.907 193.042 496.45C193.303 496.581 193.566 496.678 193.787 496.709L193.952 496.743C193.972 496.738 193.99 496.741 194.01 496.751L194.043 496.772C194.055 496.781 194.132 496.754 194.173 496.747L194.416 496.688L194.461 496.667C194.493 496.65 194.534 496.658 194.565 496.617C194.631 496.556 194.716 496.526 194.788 496.418L194.909 496.286L195.019 496.105C195.101 495.996 195.165 495.848 195.231 495.701C195.764 494.494 195.944 492.886 196.042 491.337C196.131 489.764 196.119 488.16 196.04 486.553C195.884 483.338 195.561 480.099 195.123 476.879L194.869 475.009L196.381 478.891C196.694 479.582 196.983 480.28 197.305 480.962C197.957 482.322 198.645 483.662 199.447 484.927C200.218 486.211 201.105 487.414 202.026 488.574C202.974 489.714 203.966 490.806 205.037 491.805C206.121 492.787 207.268 493.685 208.482 494.444C209.691 495.204 210.968 495.839 212.268 496.223C213.549 496.599 214.905 496.752 215.912 496.45C216.429 496.322 216.793 496.065 217.06 495.768C217.318 495.46 217.53 495.097 217.595 494.577C217.664 494.347 217.635 494.041 217.667 493.782L217.637 493.396C217.629 493.266 217.638 493.159 217.592 492.946L217.493 492.383L217.468 492.242L217.456 492.172L217.45 492.137L217.447 492.119C217.453 492.155 217.429 492.013 217.46 492.196L217.395 491.922L217.134 490.825C216.786 489.363 216.407 487.9 216.023 486.435C215.266 483.505 214.464 480.577 213.632 477.655C211.959 471.817 210.306 465.952 208.538 460.147L204.03 445.347L212.791 458.161C214.195 460.215 215.776 462.177 217.533 463.968C219.283 465.763 221.205 467.398 223.226 468.781C224.234 469.471 225.277 470.088 226.318 470.572C227.338 471.043 228.441 471.374 229.141 471.361C229.308 471.36 229.443 471.343 229.514 471.319C229.523 471.317 229.524 471.315 229.532 471.313C229.532 471.303 229.533 471.295 229.533 471.285C229.528 470.892 229.45 470.336 229.325 469.776C229.201 469.211 229.039 468.621 228.858 468.029C228.118 465.648 227.122 463.229 226.079 460.843C225.027 458.454 223.905 456.078 222.759 453.709C221.605 451.344 220.416 448.99 219.227 446.634C218.026 444.287 216.808 441.934 215.582 439.611L215.039 438.582L215.766 437.817C217.978 435.489 220.103 433.076 222.063 430.539C224.013 428 225.848 425.353 227.296 422.526C228.014 421.116 228.673 419.663 229.057 418.179C229.238 417.452 229.377 416.676 229.302 416.063C229.288 415.911 229.253 415.775 229.213 415.685C229.189 415.609 229.192 415.656 229.209 415.632C229.214 415.631 229.201 415.619 229.193 415.61C229.158 415.614 229.118 415.621 229.08 415.626C228.93 415.654 228.759 415.703 228.585 415.759C227.163 416.247 225.741 417.079 224.369 417.887C222.993 418.716 221.645 419.606 220.323 420.533C217.707 422.427 215.165 424.435 212.761 426.597C210.36 428.762 208.053 431.029 205.9 433.432C201.572 438.213 197.775 443.446 194.665 448.985C193.943 450.293 193.256 451.616 192.611 452.955L192.619 452.964C192.616 452.966 192.605 452.976 192.597 452.983C191.882 454.481 191.215 456 190.631 457.545Z" fill="#FFD6A1"/>
<path d="M317.837 393.521C321.822 397.239 325.923 401.459 330.112 406.242C339.603 407.136 346.626 399.899 348.015 392.147C348.451 389.718 349.144 381.632 339.787 379.578C324.84 376.289 319.105 389.833 317.837 393.521ZM325.494 389.542C325.905 389.055 326.399 388.597 326.917 388.125C327.187 387.903 327.47 387.686 327.758 387.467C328.038 387.236 328.347 387.039 328.668 386.854C328.986 386.665 329.303 386.465 329.631 386.283L330.663 385.819C331.348 385.496 332.086 385.311 332.801 385.113C333.155 384.998 333.52 384.945 333.882 384.903C334.243 384.854 334.597 384.804 334.947 384.77C335.644 384.686 336.329 384.762 336.964 384.772C337.601 384.772 338.193 384.936 338.734 385.036C339.273 385.162 339.765 385.243 340.179 385.431C340.599 385.584 340.955 385.747 341.246 385.874C341.827 386.133 342.141 386.314 342.141 386.314C342.141 386.314 341.768 386.386 341.148 386.457C340.839 386.49 340.466 386.539 340.049 386.56C339.633 386.565 339.161 386.7 338.661 386.756C338.161 386.841 337.623 386.853 337.071 387.005C336.52 387.142 335.934 387.198 335.354 387.371C334.778 387.56 334.166 387.658 333.581 387.885C332.998 388.114 332.38 388.263 331.813 388.554L330.936 388.919C330.66 389.073 330.373 389.207 330.094 389.351C329.519 389.609 329.007 389.964 328.466 390.244C327.961 390.576 327.441 390.871 326.98 391.199C326.511 391.519 326.06 391.824 325.66 392.132C325.242 392.423 324.881 392.719 324.536 392.969C324.221 393.241 323.907 393.457 323.676 393.658C323.189 394.058 322.911 394.287 322.911 394.287C322.911 394.287 322.968 393.919 323.196 393.32C323.304 393.017 323.457 392.66 323.656 392.26C323.869 391.873 324.091 391.409 324.41 390.962C324.709 390.495 325.077 390.024 325.494 389.542Z" fill="#FFD6A1"/>
<path d="M331.417 310.431C286.797 269.068 242.618 261.552 213.396 262.535C185.026 263.49 165 272.363 161.003 274.27C154.654 318.551 152.044 358.16 151.38 369.528C162.443 364.008 172.991 361.222 182.928 361.222C183.087 361.222 183.244 361.223 183.402 361.224C192.228 361.303 198.362 363.651 201.712 365.386C204.307 358.024 214.792 352.664 227.703 352.664C231.825 352.664 235.698 353.212 239.148 354.195C239.148 354.195 247.529 356.09 253.173 364.134C253.516 364.835 253.783 365.557 253.974 366.297C257.596 365.727 264.927 365.234 274.935 367.863C284.637 370.411 298.417 376.416 314.268 390.29C316.045 385.935 319.393 380.808 324.541 377.632C323.584 353.66 326.765 330.55 331.417 310.431ZM217.319 283.815C217.319 283.815 216.604 283.877 215.433 283.871C215.143 283.861 214.813 283.891 214.463 283.895C214.117 283.895 213.743 283.896 213.343 283.896C212.54 283.943 211.66 283.911 210.699 283.959C209.751 283.99 208.723 284.024 207.636 284.06C207.095 284.098 206.543 284.128 205.98 284.141C205.415 284.183 204.84 284.202 204.254 284.211C203.667 284.23 203.07 284.254 202.462 284.25C201.856 284.284 201.236 284.264 200.612 284.294C199.364 284.345 198.088 284.438 196.824 284.639C195.557 284.821 194.299 285.084 193.061 285.361C191.829 285.659 190.61 285.956 189.444 286.302C188.271 286.631 187.16 287.022 186.094 287.376C185.035 287.746 184.037 288.116 183.127 288.489C181.3 289.22 179.823 289.946 178.784 290.448C177.746 290.958 177.179 291.288 177.179 291.288L176.922 290.924C176.922 290.924 178.949 289.151 182.413 287.072C184.136 286.02 186.209 284.878 188.535 283.847C189.694 283.323 190.914 282.82 192.18 282.374C193.448 281.934 194.748 281.504 196.077 281.156C197.399 280.786 198.74 280.457 200.075 280.157C200.743 280.011 201.413 279.889 202.076 279.782C202.741 279.681 203.405 279.638 204.057 279.576C204.712 279.558 205.357 279.555 205.987 279.573C206.618 279.613 207.234 279.675 207.831 279.741C209.025 279.908 210.143 280.12 211.155 280.413C212.171 280.664 213.072 281.037 213.86 281.345C214.639 281.705 215.308 282.016 215.838 282.327C216.894 282.962 217.451 283.391 217.451 283.391L217.319 283.815ZM289.485 297.855C289.485 297.855 288.918 297.526 287.881 297.015C286.842 296.512 285.365 295.787 283.538 295.056C282.629 294.683 281.63 294.313 280.571 293.943C279.506 293.589 278.394 293.197 277.221 292.869C276.054 292.524 274.836 292.226 273.604 291.928C272.366 291.651 271.108 291.388 269.841 291.206C268.577 291.004 267.301 290.911 266.053 290.861C265.429 290.831 264.809 290.851 264.203 290.817C263.595 290.821 262.998 290.797 262.411 290.778C261.825 290.769 261.249 290.75 260.685 290.708C260.122 290.695 259.569 290.665 259.028 290.627C257.941 290.591 256.914 290.557 255.966 290.526C255.005 290.478 254.126 290.51 253.322 290.463C252.922 290.463 252.548 290.462 252.202 290.462C251.853 290.458 251.522 290.427 251.232 290.437C250.062 290.443 249.346 290.381 249.346 290.381L249.211 289.957C249.211 289.957 249.768 289.528 250.825 288.893C251.355 288.582 252.024 288.272 252.803 287.911C253.591 287.603 254.492 287.23 255.508 286.979C256.52 286.686 257.638 286.474 258.832 286.307C259.429 286.241 260.045 286.179 260.676 286.139C261.306 286.121 261.951 286.124 262.606 286.142C263.258 286.204 263.922 286.246 264.587 286.348C265.251 286.455 265.921 286.577 266.588 286.723C267.923 287.024 269.264 287.352 270.586 287.722C271.914 288.071 273.215 288.5 274.483 288.94C275.749 289.387 276.969 289.89 278.128 290.413C280.454 291.444 282.528 292.586 284.25 293.638C287.714 295.717 289.741 297.49 289.741 297.49L289.485 297.855Z" fill="#FFD6A1"/>
<path opacity="0.19" d="M164.011 234.573C164.011 234.573 131.727 220.101 113.915 187.817C96.1032 155.533 131.511 153.168 146.488 160.012C161.465 166.857 199.017 163.901 209.345 125.763C209.345 125.763 286.84 194.076 391.855 192.616C391.855 192.616 378.444 219.913 399.807 247.281C399.807 247.281 419.534 304.51 342.425 287.353L357.715 241.252C357.715 241.252 259.75 239.025 223.013 181.137C223.013 181.137 174.03 187.817 164.011 234.573Z" fill="#919191"/>
<path opacity="0.19" d="M446.206 356.823C465.61 417.666 415.916 462.728 358.025 465.202C300.134 467.676 246.695 385.539 246.695 385.539C251.643 378.612 251.643 370.2 251.643 370.2L249.169 367.231C249.169 367.231 238.283 376.632 225.913 377.622C213.543 378.612 197.71 367.231 197.71 367.231C197.71 367.231 237.789 440.461 116.563 453.326C-2.53978 465.966 3.97121 367.8 4.23621 364.358C-7.06279 492.896 138.829 466.686 138.829 466.686L136.355 479.056C155.784 478.303 172.411 472.503 186.15 464.804C188.745 456.049 199.435 427.164 230.305 414.574C230.305 414.574 230.495 414.497 230.825 414.362C230.915 414.325 231.003 414.289 231.093 414.253C231.698 414.006 232.614 413.633 233.706 413.187C233.893 413.111 234.071 413.038 234.253 412.964C234.349 412.925 234.446 412.885 234.543 412.846C235.832 412.32 237 411.844 238.054 411.414C238.848 411.09 239.645 410.765 240.418 410.45C241.121 410.163 241.758 409.903 242.328 409.671C243.097 409.357 243.806 409.068 244.415 408.82C244.469 408.798 244.52 408.777 244.572 408.756C244.701 408.704 244.824 408.653 244.943 408.605C245.1 408.541 245.245 408.482 245.378 408.428C245.441 408.402 245.503 408.377 245.561 408.353C245.762 408.271 245.935 408.2 246.074 408.144C246.299 408.052 246.452 407.99 246.526 407.96C246.533 407.957 246.535 407.956 246.54 407.954C246.587 407.935 246.584 407.936 246.54 407.954C246.535 407.956 246.531 407.958 246.526 407.96C246.454 407.989 246.305 408.05 246.074 408.144C245.93 408.203 245.758 408.273 245.561 408.353C245.501 408.378 245.444 408.401 245.378 408.428C245.242 408.483 245.098 408.542 244.943 408.605C244.828 408.652 244.702 408.703 244.572 408.756C244.52 408.777 244.469 408.798 244.415 408.82C243.848 409.051 243.154 409.334 242.328 409.671C241.722 409.918 241.08 410.18 240.418 410.45C239.703 410.742 238.916 411.063 238.054 411.414C236.835 411.911 235.629 412.403 234.543 412.846C234.448 412.885 234.349 412.925 234.253 412.964C234.066 413.04 233.884 413.114 233.706 413.187C232.884 413.522 232.009 413.879 231.093 414.253C230.995 414.293 230.906 414.329 230.825 414.362C230.65 414.434 230.484 414.501 230.305 414.574C230.305 414.574 229.069 419.124 226.471 427.844C226.139 428.959 225.856 430.043 225.614 431.087C231.061 424.359 233.831 419.68 233.831 419.68C254.613 458.769 314.978 484.004 314.978 484.004V469.16C326.358 477.572 361.984 486.478 404.537 466.191C486.892 426.928 446.206 356.823 446.206 356.823Z" fill="#919191"/>
<path opacity="0.19" d="M4.23621 364.358C4.23921 364.326 4.2412 364.294 4.2442 364.262C4.2442 364.262 4.24121 364.297 4.23621 364.358Z" fill="#919191"/>
<path d="M160.786 277.134C160.786 277.134 239.309 236.604 322.912 308.845C322.912 308.845 310.943 343.459 314.197 389.981L326.11 379.068C326.11 379.068 326.627 332.1 333.048 310.082C333.048 310.082 256.344 231.533 160.785 272.354V277.134H160.786Z" fill="#FFD6A1"/>
<path d="M320.915 397.661C320.915 397.661 326.505 381.4 342.141 386.314C357.777 391.229 327.779 407.604 320.915 397.661Z" fill="#FFD6A1"/>
<path d="M191.587 451.594C191.587 451.594 195.669 484.862 217.193 498.287C217.193 498.287 204.749 496.674 196.412 481.653C196.412 481.653 198.267 510.228 187.691 491.673C177.114 473.118 191.587 451.594 191.587 451.594Z" fill="#FFD6A1"/>
<path d="M93.3202 330.854C93.3202 330.854 68.5672 365.861 62.3822 365.861C56.1972 365.861 40.6112 341.729 40.6112 341.729C40.6112 341.729 42.8382 368.468 64.3612 383.065C64.3612 383.065 90.6112 343.956 93.3202 330.854Z" fill="#FFD6A1"/>
<path d="M174.331 326.31L176.924 290.925C176.924 290.925 197.401 277.549 216.45 283.425L217.319 283.816L216.45 324.03L174.331 326.31Z" fill="url(#paint0_linear_1_6)"/>
<path d="M292.2 332.791L289.607 297.406C289.607 297.406 269.13 284.03 250.081 289.906L249.212 290.296L250.081 330.51L292.2 332.791Z" fill="url(#paint1_linear_1_6)"/>
<path d="M494.78 178.322C487.16 171.417 473.797 153.959 458.32 133.739C417.62 80.5686 361.879 7.74961 320.937 1.38061C294.741 -2.69439 243.652 1.77361 193.379 21.2126C167.551 31.1996 145.906 43.6506 129.044 58.2196C109.453 75.1466 96.9392 94.5066 91.8492 115.764C86.8932 136.463 87.5112 156.351 93.6852 174.874C98.6182 189.673 107.084 203.611 118.847 216.3C136.041 234.849 154.908 245.081 160.487 247.868C150.849 303.459 147.346 358.778 146.695 370.22C138.492 364.256 112.323 344.993 100.393 333.449L97.3022 330.971C100.364 325.743 104.767 313.389 102.467 307.837C101.626 305.807 99.9212 304.642 97.7902 304.642C90.5612 304.642 84.8202 317.408 82.6322 323.068L78.8252 322.354C77.9652 316.958 75.3132 304.325 68.9452 300.369C66.7632 299.015 64.3002 298.754 61.8222 299.616C59.6042 300.387 57.9412 301.944 56.8772 304.242C55.8622 306.437 55.4162 309.381 55.5522 312.997C54.8822 312.46 54.1952 312.044 53.5022 311.758C51.9552 311.119 49.5292 310.734 46.7612 312.534C41.9492 315.662 40.9492 322.83 43.8652 333.277C43.5702 333.206 43.2712 333.157 42.9732 333.131C40.2102 332.892 38.4402 334.721 37.9622 335.286C37.7462 335.54 37.5842 335.84 37.4792 336.175L37.3232 336.672C37.2552 336.89 37.2192 337.113 37.2172 337.336C36.9482 360.173 54.6062 378.974 58.5422 382.875C57.5212 383.78 56.5172 384.599 55.5542 385.31L53.2352 387.023L55.3292 389.004C55.9152 389.558 69.7082 402.541 83.5102 410.041C62.4902 416.677 42.7792 415.833 29.3732 407.711C11.2702 396.746 5.4162 373.792 12.4442 341.331L12.4802 341.164L7.90421 339.78L7.8412 339.939C7.0692 341.905 -10.8278 388.505 10.1762 426.104C22.3902 447.969 45.2552 462.048 78.1352 467.95C88.9632 469.893 99.5692 470.879 109.658 470.879C118.546 470.879 127.231 470.111 135.48 468.596C132.744 485.324 124.132 542.352 124.925 592.245L124.944 593.469L125.943 594.176C126.377 594.483 136.791 601.756 157.968 608.132L160.359 619.685C156.153 618.303 149.639 616.634 141.982 616.294C125.031 615.554 110.66 621.831 100.447 634.463L97.3672 638.272L182.996 640.345L183.262 640.351L173.666 612.163C190.321 615.749 208.626 617.566 228.076 617.566C240.912 617.566 254.373 616.75 268.089 615.142L267.446 644.705L352.033 642.659L352.41 642.65L349.33 638.841C339.105 626.193 324.304 620.026 306.52 620.986C297.092 621.497 289.254 623.85 285.308 625.257L282.104 613.241C294.239 611.37 306.739 608.868 319.262 605.805L321.195 605.332L321.097 603.326C320.917 599.617 316.725 512.213 318.138 472.927C321.638 474.394 325.158 475.661 328.604 476.694C337.715 479.426 347.082 480.812 356.447 480.812C370.46 480.812 384.795 477.721 399.055 471.624C430.996 457.968 450.476 438.603 456.954 414.067C462.857 391.706 456.568 369.247 450.253 354.343C443.464 338.318 435.386 327.613 435.045 327.165L434.936 327.023L431.007 329.795L431.105 329.945C453.106 363.62 438.36 392.672 417.223 408.633C394.51 425.783 357.935 432.298 334.674 410.744C343.591 409.453 350.925 402.197 352.579 392.965C354.184 384.006 349.553 376.973 340.78 375.046C336.625 374.135 332.696 374.237 329.098 375.354C328.312 349.136 332.382 321.07 341.198 291.924C366.222 304.523 389.89 310.911 411.545 310.91C419.123 310.91 426.562 310.123 433.656 308.573C463.113 302.133 480.878 284.044 490.596 270.002C512.606 238.198 514.521 196.213 494.78 178.322ZM107.608 633.694C116.509 624.763 127.95 620.532 141.626 621.108C153.347 621.598 162.527 625.631 162.618 625.671L166.928 627.611L163.207 609.627C164.834 610.066 166.491 610.492 168.141 610.894L176.47 635.36L107.608 633.694ZM365.867 232.073C366.235 232.404 366.608 232.727 366.981 233.05C367.291 233.319 367.601 233.588 367.912 233.864C368.549 234.404 369.219 234.913 369.868 235.406C370.196 235.655 370.523 235.904 370.853 236.161C371.86 236.878 372.895 237.577 373.876 238.237L376.933 240.078L377.257 240.251C378.176 240.741 379.08 241.223 379.976 241.68C380.76 242.069 381.55 242.421 382.313 242.761L382.962 243.051C383.782 243.431 384.607 243.742 385.405 244.042L385.853 244.211C386.128 244.31 386.398 244.412 386.666 244.513C387.326 244.762 387.95 244.996 388.585 245.176C390.382 245.735 391.989 246.223 393.449 246.534C394.754 246.852 396.118 247.169 397.25 247.333C397.974 247.461 398.596 247.55 399.098 247.623C399.329 247.656 399.534 247.686 399.716 247.714L401.836 248.001L399.881 247.113C399.711 247.04 399.515 246.954 399.296 246.856C398.836 246.652 398.271 246.401 397.603 246.129C397.02 245.902 396.361 245.597 395.663 245.273C395.18 245.049 394.668 244.812 394.123 244.573C393.224 244.19 392.268 243.714 391.256 243.21C390.754 242.96 390.236 242.702 389.699 242.443C389.117 242.175 388.543 241.863 387.936 241.532C387.704 241.406 387.47 241.279 387.235 241.154C386.97 241.009 386.701 240.868 386.428 240.724C385.837 240.414 385.226 240.093 384.633 239.722C384.262 239.498 383.882 239.281 383.499 239.061C382.984 238.767 382.452 238.462 381.934 238.135L379.186 236.391L376.425 234.484L373.687 232.421C373.332 232.126 372.974 231.834 372.614 231.541C372.074 231.1 371.532 230.658 371.003 230.209C370.693 229.925 370.375 229.648 370.056 229.372C369.503 228.89 368.93 228.392 368.403 227.86L368.15 227.621C367.398 226.911 366.621 226.176 365.913 225.407C365.732 225.215 365.548 225.027 365.364 224.838C365.141 224.61 364.92 224.383 364.707 224.151L363.546 222.857C363.139 222.42 362.758 221.958 362.43 221.557L361.337 220.258C361.072 219.906 360.801 219.56 360.531 219.215C360.119 218.689 359.692 218.144 359.302 217.597C357.947 215.783 356.756 213.928 355.749 212.335C354.782 210.724 353.772 209.004 352.93 207.347C351.98 205.501 351.325 204.147 350.807 202.956C350.159 201.469 349.699 200.357 349.36 199.453L349.275 199.229L357.727 198.775L366.626 197.798C368.239 197.647 369.766 197.38 371.243 197.122C371.821 197.021 372.388 196.922 372.949 196.832L374.578 196.555C377.882 195.994 380.737 195.51 383.134 194.888C385.046 194.452 386.676 194.056 387.986 193.738C388.597 193.59 389.141 193.458 389.615 193.345L391.902 192.793L391.834 192.429L389.498 192.744C389.005 192.813 388.438 192.888 387.799 192.973C386.474 193.149 384.826 193.369 382.91 193.651C380.984 193.981 378.792 194.187 376.256 194.425C375.116 194.532 373.924 194.644 372.681 194.775C369.889 195.12 366.805 195.272 363.54 195.432C362.194 195.498 360.811 195.566 359.398 195.651L357.564 195.749L355.679 195.752L351.806 195.75L347.801 195.77C347.125 195.79 346.437 195.753 345.769 195.719L337.312 195.32C336.853 195.301 336.384 195.25 335.929 195.2C335.67 195.172 335.411 195.144 335.155 195.121C333.922 194.979 332.65 194.864 331.42 194.752C329.736 194.599 327.995 194.442 326.272 194.21L319.436 193.186C318.689 193.078 317.915 192.966 317.162 192.793L312.557 191.844C312.079 191.744 311.6 191.652 311.121 191.56C310.068 191.358 308.98 191.149 307.924 190.852L300.968 189.085L292.912 186.582L289.506 185.328C288.963 185.13 288.419 184.935 287.875 184.741C286.917 184.399 285.926 184.046 284.968 183.678L278.293 180.89C277.823 180.685 277.362 180.463 276.901 180.241C276.642 180.117 276.384 179.992 276.125 179.871L271.807 177.816C270.941 177.398 270.082 176.934 269.251 176.485C268.705 176.19 268.16 175.895 267.614 175.613C267.196 175.389 266.775 175.17 266.354 174.951C265.402 174.456 264.416 173.944 263.49 173.377L259.475 171.034C258.898 170.71 258.298 170.34 257.527 169.835L255.608 168.6C250.969 165.646 246.318 162.328 241.392 158.46L238.194 155.865C237.59 155.376 237.001 154.861 236.432 154.363C236.008 153.992 235.587 153.624 235.161 153.266C233.719 152.066 232.369 150.819 231.064 149.613C230.545 149.133 230.031 148.659 229.523 148.198C228.955 147.659 228.405 147.117 227.861 146.583C227.56 146.287 227.261 145.993 226.963 145.703C226.146 144.915 225.336 144.104 224.554 143.289L222.291 140.966L220.213 138.711C217.513 135.726 215.263 133.102 213.527 130.912C211.966 128.964 210.536 127.096 209.499 125.651C208.616 124.427 208.17 123.732 208.166 123.725L207.844 123.909C207.848 123.916 208.224 124.66 208.986 125.982L209.097 126.172C209.888 127.527 210.971 129.382 212.516 131.65C214.385 134.461 216.444 137.286 218.634 140.044C220.982 143.076 223.869 146.417 227.46 150.26C230.126 153.036 234.228 157.201 239.038 161.292C239.773 161.961 240.566 162.603 241.332 163.223C241.674 163.5 242.018 163.778 242.362 164.063C242.765 164.383 243.164 164.712 243.565 165.043C244.29 165.641 245.041 166.26 245.821 166.83C247.925 168.421 250.545 170.401 253.244 172.17C258.112 175.528 263.65 178.828 269.707 181.982L274.127 184.13C274.391 184.256 274.653 184.384 274.916 184.513C275.393 184.747 275.87 184.981 276.358 185.199L283.202 188.121C284.207 188.516 285.237 188.893 286.233 189.258C286.777 189.457 287.321 189.656 287.865 189.86L291.383 191.127L299.699 193.638L306.865 195.398C309.088 195.936 311.355 196.338 313.547 196.726C314.498 196.895 315.446 197.062 316.385 197.24C317.171 197.399 317.973 197.496 318.76 197.592L326.175 198.521C326.425 198.553 326.674 198.585 326.929 198.61L334.886 199.15C335.148 199.163 335.41 199.181 335.672 199.199C336.144 199.231 336.632 199.265 337.113 199.266L345.734 199.329C346.415 199.337 347.12 199.346 347.827 199.298L348.085 199.285C348.103 199.438 348.123 199.594 348.147 199.757C348.294 200.839 348.493 202.143 348.845 203.599C349.204 205.207 349.668 206.854 350.224 208.491C350.757 210.101 351.495 211.932 352.483 214.093C353.344 215.858 354.404 217.941 355.739 220.015C357.031 222.081 358.458 224.058 359.982 225.894L360.039 225.962C360.757 226.823 361.498 227.712 362.297 228.542C358.988 234.48 350.588 250.397 342.534 272.452C338.607 283.204 335.231 294.201 332.498 305.143C312.892 287.404 291.792 274.466 269.782 266.686C251.458 260.209 232.436 257.254 213.242 257.892C187.936 258.744 169.187 265.639 162.004 268.715C168.248 226.901 176.087 193.367 185.305 169.038C187.497 168.82 190.34 168.49 193.108 167.873L195.106 167.449L198.972 166.387L202.655 165.133L206.111 163.722C206.552 163.53 206.981 163.322 207.406 163.115L207.74 162.953C209.646 162.082 211.339 161.11 212.977 160.169L213.617 159.801L216.081 158.188C216.761 157.739 217.55 157.205 218.252 156.65C218.546 156.425 218.831 156.209 219.108 156C220.092 155.256 220.942 154.613 221.624 153.98C222.243 153.445 222.759 152.974 223.174 152.595C223.362 152.423 223.53 152.27 223.68 152.135L225.418 150.519L223.313 151.63C223.133 151.729 222.925 151.841 222.691 151.966C222.201 152.229 221.6 152.553 220.911 152.946L220.113 153.395L219.201 153.846C218.784 154.047 218.354 154.27 217.904 154.504C217.664 154.629 217.418 154.756 217.161 154.887C216.406 155.298 215.565 155.677 214.838 155.994L212.254 157.184C211.777 157.376 211.292 157.576 210.798 157.78C209.372 158.368 207.898 158.976 206.313 159.513C206.075 159.596 205.837 159.684 205.598 159.773C205.302 159.883 205.005 159.994 204.705 160.094L201.327 161.156L197.783 162.108L194.103 162.927L192.215 163.267C189.944 163.686 187.427 164.014 184.521 164.272C183.998 164.317 183.475 164.351 182.952 164.384L182.069 164.034L181.906 164.447C181.479 164.471 181.054 164.494 180.637 164.516C180.635 164.516 180.632 164.516 180.63 164.516C180.098 164.516 179.567 164.534 179.036 164.551C178.289 164.576 177.518 164.602 176.756 164.574C174.055 164.59 171.425 164.41 169.215 164.244C166.273 163.972 164.1 163.711 162.168 163.397C159.829 163.052 157.677 162.621 155.882 162.244C153.956 161.828 152.176 161.406 150.595 160.99L149.602 160.714C148.428 160.388 147.414 160.107 146.542 159.829L146.079 159.683C145.172 159.397 144.456 159.171 143.948 158.99L141.892 158.266L142.858 158.991C142.869 158.999 143.981 159.829 146.047 160.977C147.855 161.998 150.887 163.537 155.068 165.069C157.406 165.903 159.424 166.527 161.416 167.03C163.573 167.603 166.026 168.105 168.711 168.523L169.273 168.601C170.362 168.752 171.488 168.909 172.623 168.993L174.631 169.169L176.655 169.257C177.349 169.295 178.04 169.312 178.711 169.303L180.054 169.299C172.993 188.467 166.706 213.218 161.364 242.88C154.568 239.315 137.659 229.493 122.382 213.014C96.6152 185.218 87.9202 152.875 96.5382 116.881C105.566 79.1756 140.575 46.7956 195.116 25.7056C244.556 6.58962 294.608 2.16461 320.193 6.14161C359.224 12.2126 416.553 87.1096 454.49 136.67C470.749 157.912 483.592 174.691 491.537 181.89C499.955 189.519 504.333 203.038 503.546 218.979C502.731 235.519 496.722 252.662 486.626 267.251C478.806 278.553 455.233 305.998 411.225 305.996C392.279 305.996 369.537 300.905 342.646 287.253C351.346 259.981 361.696 239.726 365.867 232.073ZM192.752 453.101L192.899 452.99L192.838 452.923C193.446 451.666 194.117 450.372 194.832 449.076C197.906 443.601 201.678 438.379 206.043 433.556C208.072 431.292 210.311 429.06 212.889 426.735C215.15 424.703 217.618 422.724 220.433 420.686C221.844 419.696 223.164 418.833 224.467 418.048C225.758 417.288 227.221 416.426 228.646 415.937C228.822 415.881 228.96 415.842 229.069 415.819C229.093 415.893 229.112 415.987 229.121 416.086C229.182 416.58 229.105 417.231 228.881 418.134C228.471 419.719 227.732 421.269 227.134 422.442C225.881 424.888 224.224 427.425 221.919 430.427C220.112 432.767 218.056 435.143 215.635 437.691L214.816 438.552L215.42 439.699C216.554 441.847 217.746 444.144 219.064 446.719L219.188 446.965C220.316 449.2 221.482 451.51 222.595 453.791C223.976 456.647 225 458.845 225.913 460.92C226.844 463.049 227.901 465.566 228.684 468.086C228.884 468.739 229.036 469.306 229.148 469.818C229.257 470.313 229.328 470.788 229.346 471.166C229.294 471.172 229.227 471.177 229.141 471.177C228.498 471.17 227.456 470.893 226.4 470.406C225.427 469.953 224.396 469.355 223.334 468.63C221.35 467.272 219.444 465.661 217.669 463.84C215.983 462.121 214.394 460.175 212.947 458.058L203.503 444.244L208.363 460.203C209.814 464.966 211.209 469.849 212.559 474.569L213.457 477.707C214.337 480.795 215.118 483.666 215.846 486.483C216.215 487.891 216.604 489.39 216.956 490.869L217.217 491.966L217.413 492.987C217.445 493.133 217.447 493.22 217.45 493.314L217.485 493.761C217.472 493.866 217.468 493.979 217.465 494.092C217.46 494.255 217.456 494.409 217.414 494.557C217.362 494.967 217.21 495.305 216.924 495.646C216.64 495.962 216.295 496.167 215.861 496.274C214.98 496.539 213.723 496.457 212.323 496.047C211.142 495.698 209.884 495.105 208.583 494.288C207.452 493.581 206.302 492.7 205.166 491.671C204.202 490.772 203.223 489.721 202.174 488.46C201.089 487.093 200.274 485.941 199.606 484.829C198.733 483.452 198.009 481.996 197.475 480.883C197.281 480.475 197.1 480.06 196.919 479.644C196.798 479.367 196.677 479.091 196.556 478.824L194.477 473.485L194.942 476.904C195.403 480.299 195.711 483.548 195.857 486.562C195.942 488.299 195.942 489.858 195.858 491.325C195.767 492.767 195.601 494.405 195.055 495.643C194.995 495.778 194.938 495.905 194.862 496.008L194.774 496.16L194.636 496.314C194.607 496.357 194.576 496.379 194.533 496.409C194.507 496.427 194.482 496.445 194.448 496.476L194.142 496.563C194.128 496.565 194.111 496.57 194.079 496.577C194.04 496.56 194.003 496.554 193.971 496.554C193.967 496.554 193.964 496.554 193.96 496.554L193.813 496.524C193.627 496.498 193.389 496.415 193.125 496.283C192.194 495.813 191.191 494.821 190.299 493.488C189.579 492.421 188.957 491.158 188.343 489.511C187.821 488.095 187.422 486.618 187.157 485.119C186.649 482.324 186.484 479.221 186.668 475.894C186.831 472.913 187.304 469.797 188.073 466.631C188.764 463.614 189.683 460.579 190.804 457.609C191.35 456.168 191.987 454.693 192.752 453.101ZM148.392 497.035C155.851 486.658 174.663 469.224 185.581 459.437C185.52 459.623 185.46 459.808 185.4 459.994C185.314 460.257 185.229 460.52 185.14 460.788C184.823 461.805 184.508 462.92 184.178 464.198C179.201 468.911 154.676 492.377 149.491 501.882C144.265 511.463 141.346 581.842 140.787 596.638C140.275 596.408 139.784 596.183 139.304 595.96C139.164 581.459 138.971 510.143 148.392 497.035ZM152.423 503.482C156.587 495.848 174.897 477.77 183.021 469.932C182.717 471.963 182.535 473.854 182.466 475.695C182.308 479.182 182.596 482.617 183.323 485.906C184.192 489.785 185.552 492.924 187.481 495.507C188.507 496.828 189.823 498.298 191.816 499.189C192.231 499.362 192.793 499.567 193.488 499.622C193.629 499.634 193.764 499.644 193.926 499.648C194.114 499.637 194.305 499.618 194.495 499.592L194.771 499.548C194.843 499.534 194.878 499.522 194.913 499.509L195.289 499.387C195.379 499.356 195.449 499.333 195.499 499.302L195.5 499.304L195.929 499.063C196.052 498.99 196.18 498.916 196.275 498.819C196.494 498.624 196.767 498.382 196.935 498.123L197.199 497.749L197.383 497.4C197.525 497.147 197.612 496.905 197.698 496.667C198.35 494.717 198.329 492.855 198.312 491.354C198.252 489.801 198.096 488.17 197.835 486.369C197.759 485.856 197.673 485.324 197.571 484.751C197.723 485.084 197.873 485.399 198.023 485.699C198.617 486.949 199.356 488.25 200.353 489.794C201.181 491.041 202.169 492.3 203.295 493.54C205.944 496.342 208.474 498.137 211.262 499.188C212.038 499.463 212.885 499.733 213.82 499.85C214.777 500.004 215.749 499.984 216.703 499.791C217.778 499.596 218.837 499.042 219.609 498.272C220.408 497.485 220.989 496.428 221.198 495.387C221.31 495.005 221.344 494.64 221.377 494.287C221.389 494.155 221.402 494.022 221.419 493.862L221.409 493.103C221.402 492.851 221.395 492.565 221.366 492.398L221.362 492.363C223.125 492.906 225.854 493.723 229.264 494.675C232.672 495.636 236.697 496.693 240.903 497.731C242.427 498.109 243.959 498.465 245.58 498.842L247.507 499.291C248.3 499.46 249.095 499.635 249.893 499.81C251.35 500.13 252.857 500.46 254.352 500.754C255.063 500.892 255.772 501.034 256.48 501.176C258.038 501.488 259.65 501.81 261.225 502.073L262.409 502.282C264.312 502.621 266.111 502.939 267.908 503.195L268.987 503.36C270.799 503.638 272.51 503.902 274.18 504.091C274.889 504.174 275.582 504.263 276.26 504.352C277.505 504.514 278.682 504.667 279.814 504.756L284.584 505.205C285.515 505.279 286.371 505.326 287.137 505.369C287.54 505.392 287.918 505.413 288.271 505.436L291.478 505.624L291.511 505.254L288.322 504.876C287.968 504.832 287.586 504.788 287.18 504.741C286.425 504.654 285.584 504.556 284.671 504.429L279.949 503.698C278.84 503.545 277.686 503.325 276.466 503.091C275.791 502.962 275.102 502.83 274.397 502.705C272.755 502.418 271.07 502.056 269.286 501.671L268.231 501.444C266.47 501.086 264.71 500.663 262.847 500.217L261.673 499.936C260.139 499.586 258.571 499.173 257.054 498.775C256.351 498.59 255.647 498.405 254.943 498.225C253.501 497.85 252.045 497.439 250.638 497.041C249.839 496.816 249.044 496.59 248.256 496.373L246.372 495.813C244.792 495.345 243.299 494.903 241.816 494.44C237.707 493.161 233.792 491.88 230.495 490.734C227.009 489.534 224.266 488.526 222.58 487.892L220.403 487.063C220.295 486.533 220.187 486.003 220.071 485.475C219.443 482.606 218.762 479.673 217.987 476.509L217.708 475.374C217.436 474.264 217.164 473.155 216.874 472.052L216.2 469.5C217.65 470.797 219.066 471.896 220.515 472.847C221.854 473.72 223.117 474.412 224.38 474.966C225.857 475.569 227.341 476.1 229.296 476.078C229.912 476.053 230.431 475.964 230.926 475.801C231.26 475.698 231.537 475.581 231.798 475.432L231.912 475.37C232.015 475.315 232.114 475.262 232.24 475.171C232.408 475.05 232.572 474.919 232.731 474.78L232.965 474.564L233.22 474.276C233.677 473.737 233.82 473.334 233.949 472.97C234.177 472.221 234.174 471.673 234.172 471.184C234.133 470.216 233.963 469.44 233.792 468.728C233.633 468.086 233.435 467.421 233.171 466.635C232.244 463.925 231.101 461.39 230.004 459.053C228.952 456.818 227.766 454.467 226.381 451.864C225.046 449.346 223.778 447.053 222.503 444.855C221.392 442.919 220.221 440.945 219.02 438.986C221.018 436.535 222.711 434.271 224.194 432.068C224.473 431.654 224.743 431.234 225.013 430.813L225.03 430.787L225.984 431.373C228.178 432.703 230.907 434.309 233.668 435.893C237.624 438.157 241.224 440.154 244.673 441.997C245.977 442.712 247.295 443.397 248.691 444.122C249.44 444.511 250.195 444.903 250.955 445.304L257.499 448.595C258.276 448.965 259.05 449.341 259.823 449.715C261.227 450.396 262.679 451.099 264.108 451.75C264.878 452.097 265.64 452.449 266.396 452.798C267.832 453.461 269.189 454.088 270.571 454.666C271.3 454.973 272.016 455.286 272.723 455.593C274.092 456.189 275.384 456.751 276.677 457.248C277.375 457.523 278.056 457.798 278.722 458.067C279.937 458.558 281.086 459.021 282.2 459.429L286.907 461.149C287.827 461.484 288.687 461.758 289.445 462.001C289.849 462.129 290.227 462.25 290.579 462.368L293.777 463.406L293.902 463.057L290.769 461.839C290.423 461.7 290.049 461.556 289.65 461.404C288.914 461.121 288.079 460.802 287.191 460.42L282.602 458.441C281.523 457.976 280.41 457.45 279.232 456.894C278.583 456.588 277.919 456.275 277.239 455.961C275.992 455.397 274.741 454.767 273.419 454.099C272.732 453.752 272.035 453.401 271.327 453.053C270 452.408 268.696 451.713 267.315 450.976C266.576 450.582 265.832 450.186 265.081 449.795C263.721 449.08 262.338 448.309 261 447.564C260.237 447.139 259.474 446.714 258.71 446.296L252.411 442.664C251.685 442.226 250.961 441.796 250.243 441.37C248.899 440.571 247.63 439.817 246.375 439.034C243.074 437.021 239.623 434.842 235.826 432.372C233.142 430.62 230.539 428.883 228.497 427.479L227.445 426.748C228.131 425.501 228.672 424.437 229.142 423.407C229.936 421.652 230.471 420.124 230.829 418.594C230.991 417.789 231.176 416.877 231.025 415.811C230.978 415.49 230.899 415.221 230.784 414.984C230.731 414.829 230.57 414.601 230.448 414.455C230.392 414.386 230.364 414.363 230.337 414.339L230.313 414.367C230.309 414.35 230.304 414.334 230.296 414.319L230.303 414.306L230.269 414.275C230.206 414.192 230.101 414.137 230.088 414.131L229.968 414.065C229.895 414.029 229.785 413.982 229.683 413.957L229.517 413.931C229.38 413.91 229.281 413.913 229.203 413.92C229.05 413.925 228.937 413.947 228.822 413.969L228.744 413.984C228.473 414.045 228.238 414.125 228.038 414.196C226.427 414.831 225.055 415.633 223.555 416.541C222.256 417.343 220.912 418.241 219.45 419.287C216.555 421.293 213.883 423.452 211.652 425.299C209.296 427.251 206.897 429.406 204.318 431.889C198.979 437.09 194.809 442.07 191.571 447.113C190.538 448.703 189.539 450.443 188.601 452.283C180.861 459.064 155.035 482.068 145.681 495.083C135.763 508.88 135.821 579.459 135.947 594.333C132.848 592.771 130.759 591.525 129.732 590.883C129.08 539.077 138.572 479.355 140.543 467.556C145.185 466.511 149.746 465.209 154.103 463.687C172.383 457.301 188.183 446.903 201.063 432.785C216.899 415.426 224.906 395.843 224.689 385.337C225.734 385.406 226.723 385.44 227.706 385.44C229.346 385.44 231.005 385.349 232.638 385.169C235.593 391.062 250.857 420.099 276.111 444.376C288.004 455.808 300.548 464.697 313.398 470.797C311.881 506.476 315.438 585.624 316.188 601.583C250.411 617.377 203.081 613.52 174.948 607.5C163.758 605.104 153.373 601.927 144.077 598.053C145.137 568.62 148.24 511.15 152.423 503.482ZM324.353 377.533C318.577 381.135 315.541 386.773 314.198 389.981C297.934 375.797 283.904 370.027 274.984 367.684C269.035 366.121 264.02 365.663 260.183 365.663C257.602 365.663 255.553 365.87 254.113 366.089C253.922 365.395 253.662 364.709 253.327 364.028C247.707 356.018 239.276 354.034 239.201 354.018C235.617 352.997 231.749 352.479 227.706 352.479C215.078 352.479 204.396 357.669 201.612 365.125C197.989 363.28 191.937 361.115 183.406 361.038L182.93 361.036C173.098 361.036 162.553 363.789 151.586 369.218C152.265 357.673 154.884 318.291 161.174 274.393C165.143 272.51 185.192 263.668 213.404 262.719C242.558 261.741 286.662 269.236 331.213 310.493C325.825 333.825 323.518 356.378 324.353 377.533ZM227.705 357.303C239.617 357.303 249.681 362.642 249.681 368.962C249.681 375.281 239.617 380.62 227.705 380.62C215.793 380.62 205.729 375.281 205.729 368.962C205.729 362.642 215.793 357.303 227.705 357.303ZM200.996 370.307C201.857 377.164 209.237 382.818 219.849 384.749C220.51 392.265 213.912 411.544 197.497 429.537C181.414 447.169 144.633 474.984 78.9872 463.201C47.6092 457.569 25.8792 444.304 14.4002 423.774C6.94721 410.444 3.87421 394.21 5.25821 375.498C7.73521 396.152 18.3022 406.645 26.8742 411.837C34.8542 416.671 45.0902 419.226 56.4752 419.226C79.7702 419.225 106.136 408.841 127.005 391.45C152.385 370.3 171.436 365.86 182.978 365.86C192.696 365.868 198.767 368.934 200.996 370.307ZM254.316 370.948C257.046 370.486 264.184 369.773 274.123 372.446C286.339 375.733 305.461 384.906 327.187 409.939C351.056 437.44 393.189 432.83 420.132 412.484C433.06 402.722 441.997 389.732 445.297 375.909C446.682 370.108 447.094 364.12 446.526 358.091C452.228 372.166 457.61 392.712 452.285 412.859C446.201 435.872 427.654 454.151 397.159 467.189C355.689 484.917 316.116 476.101 279.535 440.981C256.301 418.674 241.701 392.238 237.613 384.317C246.804 382.133 253.178 377.032 254.316 370.948ZM318.052 393.468C319.513 389.287 325.233 376.566 339.748 379.76C348.944 381.778 348.261 389.727 347.833 392.115C346.486 399.641 339.542 406.912 330.204 406.064C326.214 401.513 322.126 397.276 318.052 393.468ZM67.6992 393.008C68.3052 392.486 69.0602 391.836 69.8672 391.084L71.2492 389.788L72.7282 388.317C73.4482 387.62 74.1572 386.851 74.9082 386.036C75.2502 385.665 75.5992 385.286 75.9632 384.899L77.8452 382.718C78.3432 382.139 78.8582 381.541 79.3402 380.908L81.0422 378.747C81.4222 378.274 81.7812 377.767 82.1282 377.276C82.3202 377.005 82.5122 376.733 82.7112 376.461C82.9032 376.188 83.0992 375.917 83.2962 375.645C83.6532 375.152 84.0212 374.643 84.3632 374.119L85.9222 371.702C86.6712 370.599 87.3352 369.427 87.9772 368.293C88.2672 367.781 88.5562 367.27 88.8542 366.764C88.9362 366.618 89.0202 366.473 89.1042 366.328C89.2572 366.064 89.4092 365.801 89.5502 365.53L91.4012 361.837C91.4712 361.696 91.5412 361.557 91.6112 361.418C91.7422 361.158 91.8732 360.9 91.9952 360.634L93.5062 357.114C94.1012 355.817 94.5452 354.557 94.9752 353.339L95.1712 352.784C95.3362 352.3 95.5062 351.834 95.6692 351.384C95.9632 350.576 96.2412 349.813 96.4392 349.088L97.9682 343.684L97.6152 343.57L95.6982 348.839C95.4542 349.528 95.1262 350.258 94.7792 351.031C94.5822 351.47 94.3782 351.923 94.1792 352.391L93.9432 352.93C93.4352 354.092 92.9092 355.293 92.2332 356.52L90.4932 359.877C90.3562 360.123 90.2102 360.367 90.0632 360.611L87.7482 364.489C87.5962 364.738 87.4302 364.981 87.2642 365.224C87.1702 365.361 87.0772 365.499 86.9872 365.634C86.6562 366.112 86.3312 366.598 86.0062 367.086C85.3072 368.134 84.5832 369.218 83.7812 370.228L82.0892 372.472C81.7272 372.947 81.3352 373.411 80.9572 373.86C80.7432 374.113 80.5312 374.366 80.3262 374.617C80.1122 374.866 79.9052 375.119 79.6972 375.371C79.3312 375.817 78.9522 376.277 78.5562 376.7L76.7522 378.675C76.2462 379.248 75.7082 379.788 75.1882 380.309L73.2322 382.266C72.8522 382.614 72.4832 382.96 72.1212 383.299C71.3542 384.018 70.6292 384.697 69.9032 385.302L68.6972 386.339L66.9922 387.731C66.2072 388.362 65.5082 388.881 64.8902 389.339L64.6872 389.49C64.3632 389.723 64.0792 389.925 63.8312 390.099C62.7552 389.182 61.6822 388.247 60.7092 387.379C76.9212 373.733 90.9152 344.363 94.9852 335.288L97.1242 336.998C109.014 348.48 133.226 366.396 143.338 373.747C137.025 377.554 130.492 382.261 123.914 387.742C113.723 396.235 101.952 403.177 89.8662 407.82C81.9922 404.28 73.4022 397.928 67.5152 393.16L67.6992 393.008ZM51.4842 345.196C51.9522 344.989 52.3082 344.602 52.4862 344.107C52.6742 343.584 52.6392 342.998 52.3822 342.483C47.9502 332.518 44.5082 319.754 49.3912 316.579C50.4752 315.875 51.1732 316.016 51.6612 316.217C53.4602 316.959 55.4082 319.733 57.2942 324.234C58.4632 327.123 59.2662 328.733 60.1152 330.437C60.4792 331.166 60.8502 331.912 61.2622 332.782C61.5582 333.405 61.9962 333.728 62.6012 333.769C63.1932 333.808 63.7582 333.559 64.1432 333.083C64.5532 332.576 64.6912 331.901 64.5112 331.277C63.9362 329.279 63.0272 326.207 61.9622 322.919C59.9222 316.623 59.6312 309.775 61.2552 306.266C61.7622 305.17 62.4452 304.504 63.4062 304.17C64.5062 303.787 65.4562 303.879 66.3972 304.464C70.6262 307.089 73.2492 317.722 74.1452 323.658L73.9762 323.852C73.4012 324.527 72.5132 325.577 71.4442 326.899C69.0592 329.828 66.4212 333.298 64.2092 336.419C63.0012 338.106 61.7912 339.876 60.6132 341.677C60.0282 342.551 59.4842 343.413 59.0292 344.141C58.5642 344.875 58.0742 345.652 57.6522 346.373L56.5152 348.273L54.9482 351.046L55.2582 351.249L57.1632 348.709L58.5292 346.98C58.9982 346.376 59.5222 345.738 60.1662 344.964C60.7032 344.309 61.3452 343.535 62.0332 342.749C63.4142 341.138 64.8232 339.559 66.2242 338.058C68.7822 335.289 71.7902 332.243 74.4762 329.7C75.6642 328.567 76.6552 327.663 77.3962 326.992L85.7792 328.563L86.4642 326.609C88.9842 319.421 94.3212 309.464 97.7882 309.464C97.8332 309.464 97.8892 309.464 97.8992 309.467C97.9122 309.478 97.9422 309.524 98.0072 309.681C99.4292 313.115 95.8392 323.857 93.4202 328.158C93.2682 328.502 78.0532 362.704 62.0112 379.515C58.3832 375.894 42.1522 358.545 42.0362 338.07C42.1702 337.992 42.3512 337.922 42.5552 337.938L42.6492 337.943C44.3582 338.009 46.1872 339.941 48.0832 343.68C48.4082 344.397 49.8892 345.901 51.4842 345.196ZM272.381 639.761L272.93 614.54C274.376 614.352 275.831 614.154 277.301 613.946L282.009 631.603L282.064 631.812L284.638 630.686C284.987 630.535 319.625 615.903 342.14 638.074L272.381 639.761Z" fill="#222222"/>
<path d="M213.863 281.346C213.075 281.038 212.174 280.665 211.158 280.414C210.146 280.121 209.028 279.909 207.834 279.742C207.237 279.676 206.621 279.614 205.99 279.574C205.36 279.556 204.715 279.559 204.06 279.577C203.408 279.639 202.744 279.682 202.079 279.783C201.415 279.89 200.745 280.012 200.078 280.158C198.743 280.459 197.402 280.787 196.08 281.157C194.752 281.506 193.451 281.935 192.183 282.375C190.917 282.822 189.697 283.325 188.538 283.848C186.212 284.879 184.138 286.021 182.416 287.073C178.952 289.152 176.925 290.925 176.925 290.925L177.182 291.289C177.182 291.289 177.749 290.96 178.787 290.449C179.826 289.946 181.303 289.221 183.13 288.49C184.039 288.117 185.038 287.747 186.097 287.377C187.162 287.023 188.274 286.632 189.447 286.303C190.613 285.958 191.832 285.66 193.064 285.362C194.302 285.085 195.56 284.822 196.827 284.64C198.09 284.438 199.366 284.345 200.615 284.295C201.239 284.265 201.859 284.285 202.465 284.251C203.073 284.255 203.67 284.231 204.257 284.212C204.843 284.203 205.419 284.184 205.983 284.142C206.546 284.129 207.099 284.099 207.639 284.061C208.726 284.025 209.753 283.991 210.702 283.96C211.663 283.912 212.542 283.944 213.346 283.897C213.746 283.897 214.12 283.896 214.466 283.896C214.815 283.892 215.146 283.861 215.436 283.872C216.607 283.878 217.322 283.816 217.322 283.816L217.457 283.392C217.457 283.392 216.9 282.963 215.844 282.328C215.31 282.016 214.642 281.706 213.863 281.346Z" fill="#222222"/>
<path d="M251.232 290.437C251.522 290.427 251.853 290.457 252.202 290.462C252.548 290.462 252.922 290.463 253.322 290.463C254.125 290.51 255.005 290.478 255.966 290.526C256.914 290.557 257.942 290.591 259.028 290.627C259.569 290.665 260.121 290.695 260.685 290.708C261.249 290.75 261.825 290.769 262.411 290.778C262.998 290.797 263.595 290.821 264.203 290.817C264.809 290.851 265.429 290.831 266.053 290.861C267.301 290.912 268.577 291.005 269.841 291.206C271.108 291.388 272.366 291.651 273.604 291.928C274.836 292.226 276.055 292.523 277.221 292.869C278.394 293.197 279.505 293.589 280.571 293.943C281.63 294.313 282.628 294.683 283.538 295.056C285.365 295.787 286.842 296.513 287.881 297.015C288.919 297.525 289.485 297.855 289.485 297.855L289.742 297.491C289.742 297.491 287.715 295.718 284.251 293.639C282.528 292.587 280.455 291.445 278.129 290.414C276.97 289.89 275.75 289.388 274.484 288.941C273.216 288.501 271.915 288.071 270.587 287.723C269.265 287.353 267.924 287.024 266.589 286.724C265.921 286.578 265.251 286.456 264.588 286.349C263.923 286.247 263.259 286.205 262.607 286.143C261.952 286.125 261.307 286.121 260.677 286.14C260.046 286.18 259.43 286.242 258.833 286.308C257.639 286.475 256.521 286.687 255.509 286.98C254.493 287.231 253.592 287.604 252.804 287.912C252.025 288.272 251.356 288.583 250.826 288.894C249.77 289.529 249.212 289.958 249.212 289.958L249.347 290.382C249.347 290.382 250.062 290.443 251.232 290.437Z" fill="#222222"/>
<path d="M323.197 393.32C322.97 393.919 322.912 394.287 322.912 394.287C322.912 394.287 323.19 394.058 323.677 393.658C323.908 393.457 324.222 393.24 324.537 392.969C324.881 392.719 325.242 392.423 325.661 392.132C326.062 391.824 326.512 391.519 326.981 391.199C327.442 390.871 327.962 390.576 328.467 390.244C329.008 389.964 329.52 389.608 330.095 389.351C330.375 389.208 330.661 389.074 330.937 388.919L331.814 388.554C332.381 388.263 332.999 388.114 333.582 387.885C334.167 387.658 334.779 387.56 335.355 387.371C335.935 387.198 336.521 387.141 337.072 387.005C337.624 386.852 338.162 386.841 338.662 386.756C339.162 386.7 339.634 386.565 340.05 386.56C340.467 386.539 340.84 386.49 341.149 386.457C341.769 386.386 342.142 386.314 342.142 386.314C342.142 386.314 341.828 386.134 341.247 385.874C340.956 385.747 340.6 385.583 340.18 385.431C339.765 385.243 339.274 385.163 338.735 385.036C338.194 384.936 337.602 384.772 336.965 384.772C336.33 384.761 335.645 384.685 334.948 384.77C334.598 384.804 334.244 384.855 333.883 384.903C333.521 384.945 333.156 384.998 332.802 385.113C332.086 385.31 331.348 385.495 330.664 385.819L329.632 386.283C329.304 386.465 328.987 386.665 328.669 386.854C328.348 387.039 328.039 387.236 327.759 387.467C327.471 387.686 327.188 387.903 326.918 388.125C326.401 388.596 325.906 389.055 325.495 389.542C325.078 390.024 324.71 390.495 324.412 390.961C324.093 391.408 323.871 391.872 323.658 392.259C323.458 392.66 323.305 393.017 323.197 393.32Z" fill="#222222"/>
<path d="M169.314 493.834C165.371 493.834 162.163 497.042 162.163 500.985C162.163 504.929 165.371 508.137 169.314 508.137C173.257 508.137 176.465 504.929 176.465 500.985C176.465 497.042 173.257 493.834 169.314 493.834ZM169.314 503.684C167.826 503.684 166.616 502.474 166.616 500.986C166.616 499.499 167.826 498.288 169.314 498.288C170.802 498.288 172.012 499.499 172.012 500.986C172.012 502.473 170.801 503.684 169.314 503.684Z" fill="#222222"/>
<path d="M158.527 543.549C154.584 543.549 151.376 546.757 151.376 550.7C151.376 554.644 154.584 557.852 158.527 557.852C162.47 557.852 165.678 554.644 165.678 550.7C165.678 546.757 162.47 543.549 158.527 543.549ZM158.527 553.398C157.039 553.398 155.829 552.188 155.829 550.7C155.829 549.213 157.039 548.002 158.527 548.002C160.015 548.002 161.225 549.212 161.225 550.7C161.225 552.187 160.015 553.398 158.527 553.398Z" fill="#222222"/>
<path d="M218.559 547.301C214.616 547.301 211.408 550.509 211.408 554.452C211.408 558.395 214.616 561.603 218.559 561.603C222.502 561.603 225.71 558.395 225.71 554.452C225.71 550.509 222.502 547.301 218.559 547.301ZM218.559 557.15C217.071 557.15 215.861 555.94 215.861 554.452C215.861 552.964 217.071 551.754 218.559 551.754C220.047 551.754 221.257 552.964 221.257 554.452C221.257 555.94 220.047 557.15 218.559 557.15Z" fill="#222222"/>
<path d="M222.311 498.994C218.368 498.994 215.16 502.202 215.16 506.145C215.16 510.088 218.368 513.296 222.311 513.296C226.254 513.296 229.462 510.088 229.462 506.145C229.462 502.202 226.254 498.994 222.311 498.994ZM222.311 508.842C220.823 508.842 219.613 507.632 219.613 506.144C219.613 504.656 220.823 503.446 222.311 503.446C223.799 503.446 225.009 504.656 225.009 506.144C225.009 507.632 223.799 508.842 222.311 508.842Z" fill="#222222"/>
<path d="M193.365 325.287C189.155 325.287 185.98 330.277 185.98 336.894C185.98 343.511 189.155 348.5 193.365 348.5C197.576 348.5 200.751 343.51 200.751 336.894C200.751 330.278 197.575 325.287 193.365 325.287Z" fill="#222222"/>
<path d="M274.971 332.791C270.76 332.791 267.585 337.781 267.585 344.398C267.585 351.015 270.76 356.004 274.971 356.004C279.181 356.004 282.356 351.014 282.356 344.398C282.356 337.782 279.182 332.791 274.971 332.791Z" fill="#222222"/>
<defs>
<linearGradient id="paint0_linear_1_6" x1="195.825" y1="325.173" x2="195.825" y2="291.526" gradientUnits="userSpaceOnUse">
<stop offset="0.0108" stop-color="#FFD6A1"/>
<stop offset="1" stop-color="#FFD6A1"/>
</linearGradient>
<linearGradient id="paint1_linear_1_6" x1="270.706" y1="331.653" x2="270.706" y2="298.007" gradientUnits="userSpaceOnUse">
<stop offset="0.0108" stop-color="#FFD6A1"/>
<stop offset="1" stop-color="#FFD6A1"/>
</linearGradient>
</defs>
</svg>
