<svg width="261" height="358" viewBox="0 0 261 358" fill="none" xmlns="http://www.w3.org/2000/svg">
<path d="M140.178 340.812L139.893 354.974L175.967 354.031C164.34 341.41 146.423 349.66 146.234 349.748L145.017 350.324L142.582 340.459C141.774 340.583 140.973 340.701 140.178 340.812Z" fill="#171617"/>
<path d="M94.8717 257.705C95.0255 257.063 95.1884 256.424 95.3704 255.793C95.4847 255.421 95.5908 255.053 95.7091 254.678C90.3843 259.826 80.2916 269.877 76.3684 275.774C71.4705 283.137 71.6314 323.886 71.6934 330.68C71.9968 330.832 72.3084 330.986 72.6374 331.145C72.928 322.79 74.4158 283.869 77.0921 278.567C79.7391 273.325 92.1744 260.464 94.8717 257.705Z" fill="#F1F2F2"/>
<path d="M83.9135 338.039L85.8143 347.965L83.7756 346.974C83.73 346.951 79.035 344.711 72.9823 344.437C65.8545 344.111 59.9238 346.525 55.3216 351.606L90.969 352.538L86.64 338.797C85.6995 338.551 84.7909 338.297 83.9135 338.039Z" fill="#171617"/>
<path d="M112.406 306.135C111.644 306.135 111.024 306.805 111.024 307.629C111.024 308.453 111.644 309.123 112.406 309.123C113.169 309.123 113.789 308.453 113.789 307.629C113.789 306.805 113.169 306.135 112.406 306.135Z" fill="#C9C7C8"/>
<path d="M81.64 304.057C80.8774 304.057 80.2573 304.727 80.2573 305.551C80.2573 306.375 80.8774 307.045 81.64 307.045C82.4026 307.045 83.0228 306.375 83.0228 305.551C83.0228 304.727 82.4026 304.057 81.64 304.057Z" fill="#C9C7C8"/>
<path d="M87.1684 276.528C86.4058 276.528 85.7856 277.198 85.7856 278.022C85.7856 278.846 86.4058 279.516 87.1684 279.516C87.931 279.516 88.5511 278.846 88.5511 278.022C88.5511 277.198 87.9305 276.528 87.1684 276.528Z" fill="#C9C7C8"/>
<path d="M63.9639 215.393C67.3946 212.304 70.7525 209.697 74.0299 207.572C69.5353 204.044 56.4804 193.653 50.2391 187.141L49.0404 186.104C46.9453 191.167 39.7421 207.559 31.3653 215.111C31.8148 215.545 32.4057 216.107 33.1052 216.749C33.2462 216.643 33.4117 216.516 33.6049 216.366C33.935 216.101 34.3398 215.78 34.7903 215.389C35.0153 215.192 35.2552 214.983 35.5078 214.763C35.7549 214.533 36.0142 214.292 36.2848 214.041C36.8342 213.547 37.3867 212.957 37.9929 212.358C38.2835 212.044 38.5818 211.721 38.8873 211.391C39.1922 211.061 39.5069 210.726 39.8041 210.361C40.1075 210.003 40.4155 209.638 40.7276 209.269C41.0439 208.903 41.3293 208.501 41.6363 208.113C41.9351 207.717 42.2528 207.331 42.5434 206.92C42.832 206.507 43.1215 206.092 43.4111 205.677C44.0107 204.86 44.515 203.973 45.0562 203.129C45.1869 202.916 45.3263 202.707 45.4488 202.491C45.5692 202.273 45.6892 202.056 45.8086 201.84C46.0474 201.407 46.2831 200.98 46.5153 200.56C46.6301 200.349 46.75 200.143 46.8577 199.933C46.9602 199.719 47.0616 199.508 47.1621 199.299C47.363 198.88 47.5598 198.47 47.7509 198.071C48.1533 197.282 48.4577 196.498 48.7508 195.779C49.0348 195.056 49.3351 194.407 49.5319 193.805C49.7343 193.203 49.9106 192.68 50.0562 192.248C50.3473 191.383 50.5138 190.888 50.5138 190.888C50.5138 190.888 50.3816 191.394 50.1494 192.28C50.0331 192.723 49.8922 193.262 49.7302 193.881C49.5734 194.501 49.3182 195.172 49.0814 195.922C48.8359 196.668 48.5822 197.484 48.2317 198.31C48.0656 198.728 47.8955 199.157 47.7212 199.596C47.6341 199.816 47.5459 200.038 47.4568 200.263C47.362 200.484 47.2554 200.701 47.1539 200.924C46.9479 201.368 46.7382 201.82 46.5261 202.277C46.42 202.506 46.3129 202.736 46.2052 202.968C46.0956 203.198 45.969 203.419 45.8511 203.647C45.3612 204.547 44.9055 205.494 44.352 206.374C44.085 206.821 43.818 207.269 43.5515 207.714C43.283 208.158 42.9862 208.578 42.7069 209.007C42.4194 209.43 42.1534 209.866 41.8551 210.267C41.5605 210.672 41.2688 211.072 40.9824 211.465C40.7015 211.864 40.4012 212.235 40.1101 212.601C39.818 212.966 39.5325 213.324 39.2542 213.672C38.671 214.342 38.1385 214.997 37.6024 215.557C37.338 215.842 37.0848 216.114 36.8434 216.373C36.5948 216.625 36.3586 216.864 36.1372 217.089C35.6923 217.537 35.2869 217.911 34.9533 218.222C34.9164 218.255 34.8841 218.284 34.8488 218.315C38.0227 221.1 42.4194 224.594 46.4502 226.543C52.5177 224.03 58.5478 220.27 63.9639 215.393Z" fill="#F1F2F2"/>
<path d="M101.682 238.527C110.314 228.303 113.532 217.568 113.156 213.568C107.801 212.536 103.911 209.435 103.495 205.597C102.44 204.887 99.2746 203.097 94.1716 203.093C94.167 203.093 94.1614 203.093 94.1563 203.093C88.2369 203.093 78.4517 205.558 65.4245 217.288C54.4186 227.197 40.9009 232.644 29.3389 232.645C23.6465 232.645 18.4298 231.326 14.2175 228.568C9.23195 225.305 4.07414 219.124 3.07784 207.434C2.37111 215.939 2.99483 226.238 7.6924 235.316C13.5897 246.712 24.7489 254.075 40.8593 257.199C74.5485 263.735 93.4275 248.304 101.682 238.527Z" fill="#222222"/>
<path d="M114.329 279.385C113.567 279.385 112.947 280.055 112.947 280.879C112.947 281.703 113.567 282.373 114.329 282.373C115.092 282.373 115.712 281.703 115.712 280.879C115.712 280.055 115.092 279.385 114.329 279.385Z" fill="#C9C7C8"/>
<path d="M117.094 198.355C110.937 198.355 105.736 201.359 105.736 204.914C105.736 208.468 110.937 211.472 117.094 211.472C123.25 211.472 128.452 208.468 128.452 204.914C128.451 201.358 123.25 198.355 117.094 198.355Z" fill="#F68D63"/>
<path d="M118.032 261.633C118.033 261.629 118.032 261.624 118.033 261.62C118.031 261.622 118.029 261.623 118.028 261.625C118.023 261.634 118.018 261.643 118.015 261.654L118.032 261.633Z" fill="#C9C7C8"/>
<path d="M229.076 198.192C229.462 201.748 229.281 205.285 228.517 208.737C226.831 216.368 222.263 223.541 215.656 228.933C201.881 240.17 180.346 242.721 168.15 227.538C157 213.656 147.181 208.568 140.908 206.744C135.779 205.254 132.127 205.645 130.65 205.925C130.094 209.371 126.718 212.176 122.032 213.347C124.035 217.558 131.547 232.375 143.592 244.869C162.37 264.348 182.687 269.237 203.977 259.402C219.634 252.169 229.158 242.024 232.283 229.248C235.001 218.142 232.404 206.816 229.076 198.192Z" fill="#222222"/>
<path d="M252.373 101.25C248.309 97.2701 241.729 87.9821 233.398 76.2232C213.947 48.7661 184.551 7.27247 164.511 3.904C151.388 1.69953 125.716 4.14987 100.36 14.7431C72.3771 26.4339 54.4145 44.3898 49.7799 65.3032C45.3555 85.2698 49.8194 103.212 63.0475 118.63C71.041 127.948 79.9595 133.448 83.1662 135.255C85.5991 120.631 88.753 106.11 92.811 94.2505C92.5352 94.2511 92.26 94.2522 91.9858 94.2533C91.6348 94.2577 91.2853 94.2489 90.9378 94.2278C90.5903 94.2112 90.2438 94.1952 89.8989 94.1786C89.5556 94.1459 89.2137 94.1138 88.8745 94.0816C88.1949 94.0274 87.5286 93.9188 86.8737 93.8219C85.5673 93.6021 84.3142 93.3324 83.1468 92.998C81.9757 92.6779 80.8902 92.2958 79.9011 91.9143C77.9269 91.1329 76.3546 90.304 75.2927 89.6561C74.2267 89.0159 73.6686 88.5635 73.6686 88.5635C73.6686 88.5635 73.8321 88.6255 74.1385 88.7424C74.4435 88.8598 74.8981 89.0126 75.471 89.2081C76.044 89.4058 76.7497 89.6096 77.5508 89.8521C78.3569 90.0814 79.2697 90.3156 80.2655 90.5482C81.2633 90.7741 82.3442 91.0045 83.4932 91.1877C84.6397 91.3893 85.8553 91.5322 87.1099 91.6573C88.3671 91.7592 89.6647 91.8434 90.9839 91.8406C91.643 91.8672 92.3067 91.8079 92.9724 91.8085C93.2107 91.7952 93.4501 91.7808 93.6889 91.7664C93.7125 91.7016 93.7355 91.6363 93.7591 91.5721L94.1429 91.7365C94.4187 91.7177 94.6949 91.6983 94.9706 91.6728C96.3011 91.5455 97.629 91.3727 98.923 91.1152C99.2469 91.0521 99.5693 90.9895 99.8901 90.9269C100.208 90.8511 100.526 90.7758 100.841 90.701C101.156 90.6246 101.469 90.5487 101.78 90.4729C102.088 90.3831 102.394 90.2945 102.697 90.2065C103.001 90.1185 103.302 90.0315 103.601 89.9451C103.895 89.8443 104.187 89.7441 104.475 89.645C104.765 89.5475 105.052 89.4512 105.335 89.3559C105.616 89.2546 105.888 89.1361 106.162 89.0337C107.26 88.6316 108.265 88.1537 109.211 87.7423C109.674 87.512 110.118 87.2916 110.539 87.0817C110.967 86.8796 111.37 86.6802 111.736 86.4654C112.107 86.261 112.45 86.0611 112.777 85.8911C112.94 85.8042 113.096 85.7211 113.245 85.6414C113.39 85.5533 113.528 85.4697 113.659 85.3905C114.181 85.0677 114.605 84.8312 114.889 84.6618C115.177 84.4973 115.331 84.4098 115.331 84.4098C115.331 84.4098 115.204 84.5372 114.966 84.7764C114.724 85.0101 114.376 85.3651 113.915 85.7959C113.466 86.2455 112.868 86.7112 112.191 87.2711C111.856 87.5568 111.483 87.8331 111.084 88.1183C110.683 88.4018 110.262 88.6997 109.822 89.011C108.91 89.5741 107.924 90.2048 106.822 90.7486C106.55 90.8904 106.274 91.0393 105.989 91.1733C105.701 91.3013 105.41 91.4308 105.116 91.5615C104.82 91.6911 104.522 91.8218 104.22 91.9536C103.912 92.0676 103.601 92.1834 103.288 92.2997C102.974 92.4143 102.657 92.5295 102.337 92.6463C102.012 92.7438 101.685 92.8418 101.357 92.9404C101.027 93.0373 100.695 93.1347 100.362 93.2327C100.023 93.3103 99.6836 93.3878 99.3428 93.4664C98.0236 93.7843 96.6603 93.9709 95.2956 94.1165C89.8149 109.722 85.9629 130.28 83.3025 149.576C87.1299 147.786 96.6798 143.991 109.685 143.518C119.505 143.163 129.241 144.797 138.626 148.381C149.956 152.708 160.79 159.906 170.854 169.771C172.441 162.877 174.284 156.688 176.033 151.512C180.226 139.106 184.628 130.166 186.189 127.145C185.753 126.66 185.355 126.142 184.959 125.629C184.152 124.58 183.428 123.485 182.792 122.385C182.142 121.295 181.608 120.179 181.128 119.116C180.672 118.037 180.275 117.005 179.975 116.026C179.668 115.051 179.439 114.141 179.271 113.327C179.089 112.518 178.989 111.798 178.915 111.208C178.898 111.083 178.884 110.967 178.873 110.853C178.798 110.857 178.726 110.861 178.651 110.865C178.299 110.891 177.943 110.886 177.585 110.882C177.227 110.879 176.866 110.876 176.503 110.874C175.775 110.868 175.039 110.862 174.293 110.856C173.92 110.853 173.544 110.85 173.166 110.846C172.789 110.846 172.41 110.803 172.029 110.783C171.266 110.728 170.495 110.673 169.717 110.618C169.328 110.588 168.937 110.558 168.544 110.529L167.953 110.484C167.756 110.463 167.56 110.432 167.362 110.407C166.574 110.3 165.778 110.192 164.978 110.084C164.577 110.03 164.175 109.975 163.771 109.921C163.367 109.868 162.962 109.815 162.561 109.727C160.953 109.398 159.31 109.133 157.685 108.708C156.873 108.493 156.059 108.277 155.241 108.06L154.013 107.734L152.799 107.34C151.989 107.075 151.178 106.81 150.365 106.544L149.756 106.345L149.156 106.112L147.957 105.645C147.162 105.323 146.36 105.019 145.57 104.683C144.79 104.323 144.01 103.963 143.231 103.604L142.065 103.066C141.68 102.88 141.305 102.672 140.924 102.476C140.167 102.078 139.412 101.682 138.66 101.287C135.694 99.6186 132.854 97.8134 130.235 95.8614C128.905 94.9195 127.654 93.9039 126.435 92.9071C125.817 92.4198 125.248 91.8783 124.664 91.376C124.088 90.8616 123.504 90.3754 122.965 89.846C120.747 87.8082 118.791 85.7161 117.036 83.7415C115.305 81.7402 113.778 79.8497 112.519 78.0932C111.241 76.3539 110.203 74.7763 109.387 73.4506C108.558 72.1354 107.978 71.0512 107.581 70.3169C107.188 69.5793 106.999 69.174 106.999 69.174C106.999 69.174 107.225 69.556 107.685 70.2449C108.143 70.9349 108.837 71.9283 109.752 73.1621C110.66 74.4008 111.818 75.8572 113.182 77.4858C113.526 77.8894 113.881 78.3064 114.247 78.7356C114.624 79.1531 115.011 79.5828 115.409 80.0241C115.804 80.4677 116.216 80.9146 116.646 81.3631C117.074 81.8133 117.506 82.2807 117.958 82.7447C118.883 83.6518 119.819 84.6258 120.852 85.5555C121.367 86.0224 121.869 86.5235 122.408 86.9953C122.946 87.4671 123.493 87.9461 124.047 88.4323C126.291 90.3361 128.721 92.2515 131.341 94.0545C131.668 94.2815 131.996 94.5091 132.325 94.7378C132.652 94.9699 132.984 95.1963 133.328 95.4051C134.008 95.8343 134.694 96.2667 135.384 96.7014C136.065 97.1522 136.79 97.5298 137.501 97.9413C138.218 98.3411 138.921 98.7808 139.653 99.1628C140.388 99.5411 141.126 99.9204 141.866 100.301C142.237 100.489 142.604 100.688 142.981 100.866L144.119 101.38C144.879 101.723 145.64 102.067 146.403 102.411C147.173 102.731 147.956 103.02 148.732 103.326L149.896 103.788L150.478 104.02L151.069 104.219C151.858 104.484 152.646 104.749 153.433 105.013L154.611 105.408L155.805 105.735C156.6 105.953 157.392 106.171 158.181 106.388C158.965 106.626 159.769 106.759 160.559 106.938C161.35 107.114 162.137 107.289 162.919 107.464C163.309 107.56 163.704 107.621 164.096 107.683C164.489 107.747 164.88 107.81 165.27 107.873C166.05 107.999 166.825 108.125 167.593 108.249C169.133 108.474 170.661 108.569 172.15 108.754C172.523 108.79 172.892 108.849 173.262 108.865C173.632 108.884 174 108.903 174.366 108.921C175.097 108.958 175.82 108.995 176.533 109.032C176.89 109.05 177.244 109.068 177.596 109.086C177.948 109.106 178.297 109.125 178.644 109.114C179.339 109.11 180.023 109.107 180.695 109.103C181.368 109.104 182.03 109.104 182.679 109.104C183.004 109.104 183.326 109.103 183.645 109.103C183.964 109.084 184.279 109.066 184.59 109.048C187.084 108.888 189.383 108.832 191.405 108.563C193.429 108.332 195.208 108.207 196.652 107.94C198.1 107.71 199.245 107.555 200.025 107.439C200.805 107.325 201.222 107.264 201.222 107.264C201.222 107.264 200.814 107.371 200.05 107.57C199.284 107.766 198.164 108.07 196.73 108.424C195.302 108.824 193.538 109.125 191.515 109.499C190.502 109.675 189.429 109.917 188.282 110.033C187.136 110.169 185.931 110.313 184.673 110.462C184.359 110.499 184.041 110.536 183.719 110.574C183.397 110.594 183.071 110.614 182.743 110.634C182.085 110.673 181.415 110.713 180.733 110.753C180.251 110.779 179.757 110.805 179.264 110.831C179.293 110.916 179.321 110.998 179.353 111.088C179.543 111.636 179.797 112.291 180.096 113.033C180.395 113.774 180.769 114.592 181.187 115.47C181.602 116.351 182.1 117.274 182.635 118.238C183.191 119.189 183.785 120.182 184.461 121.16C184.789 121.657 185.156 122.135 185.505 122.634C185.691 122.874 185.879 123.115 186.068 123.357C186.254 123.603 186.441 123.847 186.643 124.081C186.84 124.319 187.038 124.557 187.237 124.797C187.437 125.034 187.652 125.258 187.856 125.494C188.262 125.968 188.701 126.41 189.136 126.856C189.559 127.316 190.029 127.723 190.47 128.158C190.927 128.576 191.393 128.977 191.849 129.386C192.323 129.771 192.792 130.153 193.256 130.531C193.736 130.889 194.209 131.242 194.675 131.589C195.154 131.918 195.625 132.241 196.086 132.558C196.549 132.873 197.023 133.145 197.471 133.437C197.916 133.737 198.375 133.976 198.808 134.232C199.244 134.483 199.66 134.741 200.077 134.949C200.904 135.381 201.655 135.811 202.347 136.13C203.035 136.456 203.628 136.78 204.134 136.992C204.636 137.214 205.028 137.411 205.298 137.536C205.566 137.668 205.709 137.738 205.709 137.738C205.709 137.738 205.554 137.715 205.263 137.673C204.974 137.624 204.545 137.565 204.003 137.462C203.458 137.377 202.807 137.218 202.062 137.022C201.309 136.848 200.481 136.576 199.575 136.271C199.117 136.131 198.662 135.927 198.179 135.739C197.701 135.542 197.201 135.348 196.705 135.1C196.208 134.858 195.692 134.617 195.177 134.341C194.666 134.06 194.148 133.76 193.62 133.456C193.107 133.122 192.585 132.783 192.058 132.439C191.546 132.067 191.027 131.69 190.514 131.294C190.018 130.875 189.5 130.474 189.013 130.028C188.638 129.667 188.251 129.318 187.879 128.951C185.809 133.042 180.404 144.403 175.89 159.726C221.79 184.948 244.114 157.651 249.874 148.657C255.058 140.563 258.143 131.051 258.562 121.873C258.963 113.011 256.708 105.496 252.373 101.25Z" fill="#F1F2F2"/>
<path d="M161.108 261.243C154.516 257.871 148.104 252.976 141.967 246.602C128.957 233.088 121.136 216.934 119.676 213.78C118.841 213.882 117.979 213.938 117.093 213.938C116.536 213.938 115.988 213.914 115.449 213.873C115.603 219.218 111.914 230.066 103.368 240.188C96.7783 247.993 88.6941 253.741 79.3404 257.272C77.0685 258.13 74.7331 258.846 72.3397 259.426C71.2696 266.334 66.447 299.181 66.7878 327.861C67.371 328.257 68.497 328.98 70.1636 329.882C70.0898 320.967 70.0708 282.424 75.1333 274.814C79.9503 267.573 93.3363 254.708 97.1293 251.118C97.5942 250.131 98.1 249.17 98.6545 248.247C100.504 245.134 102.762 242.373 105.174 239.834C106.388 238.572 107.634 237.349 108.927 236.191C110.221 235.034 111.535 233.902 112.917 232.867C113.601 232.339 114.298 231.829 115.017 231.35C115.743 230.875 116.462 230.415 117.3 230.059C117.408 230.017 117.52 229.977 117.647 229.946C117.715 229.933 117.776 229.916 117.865 229.913C117.903 229.909 117.947 229.907 118.009 229.917L118.093 229.931C118.126 229.94 118.173 229.961 118.211 229.982L118.269 230.017C118.286 230.026 118.357 230.094 118.332 230.07L118.361 230.099C118.383 230.125 118.391 230.124 118.426 230.171C118.489 230.254 118.561 230.366 118.582 230.432C118.65 230.586 118.683 230.733 118.701 230.872C118.775 231.429 118.69 231.906 118.602 232.377C118.401 233.308 118.097 234.178 117.744 235.02C117.466 235.678 117.158 236.316 116.836 236.945C117.013 237.078 117.216 237.23 117.446 237.402C118.343 238.068 119.637 239.008 121.204 240.113C122.773 241.216 124.614 242.487 126.613 243.805C127.606 244.475 128.653 245.129 129.707 245.815C130.772 246.479 131.854 247.153 132.937 247.828C134.032 248.475 135.117 249.149 136.205 249.767C137.296 250.38 138.355 251.019 139.409 251.572C140.46 252.13 141.462 252.706 142.441 253.184C143.417 253.67 144.33 254.156 145.191 254.557C146.053 254.959 146.842 255.327 147.543 255.653C148.244 255.979 148.871 256.22 149.379 256.44C150.401 256.869 150.985 257.115 150.985 257.115C150.985 257.115 150.389 256.906 149.346 256.54C148.827 256.351 148.186 256.148 147.468 255.865C146.75 255.582 145.939 255.262 145.055 254.913C144.171 254.563 143.232 254.134 142.227 253.707C141.219 253.287 140.186 252.773 139.101 252.278C138.012 251.787 136.919 251.212 135.79 250.664C134.663 250.11 133.54 249.502 132.405 248.918C131.282 248.308 130.158 247.697 129.053 247.096C127.959 246.472 126.87 245.879 125.837 245.267C123.757 244.065 121.837 242.901 120.198 241.888C118.561 240.871 117.206 240.004 116.262 239.386C116.051 239.246 115.863 239.122 115.694 239.009C115.536 239.274 115.379 239.54 115.216 239.801C114.381 241.144 113.473 242.43 112.527 243.681C113.15 244.778 113.755 245.877 114.346 246.991C115.031 248.268 115.691 249.562 116.332 250.869C116.975 252.176 117.599 253.497 118.187 254.846C118.774 256.198 119.34 257.561 119.806 259.034C119.921 259.405 120.029 259.784 120.122 260.185C120.212 260.59 120.294 261.007 120.313 261.525C120.314 261.793 120.315 262.083 120.203 262.479C120.134 262.69 120.065 262.89 119.848 263.166L119.764 263.269L119.719 263.324L119.606 263.436C119.528 263.51 119.446 263.58 119.363 263.645C119.278 263.711 119.22 263.738 119.145 263.784C119.002 263.873 118.86 263.932 118.717 263.979C118.43 264.081 118.158 264.117 117.906 264.128C116.898 264.145 116.143 263.836 115.426 263.52C114.72 263.185 114.075 262.788 113.461 262.356C112.584 261.733 111.78 261.031 111.023 260.279L111.451 262.027C111.65 262.846 111.832 263.671 112.021 264.494C112.394 266.141 112.751 267.794 113.088 269.456C113.15 269.767 113.209 270.078 113.267 270.389C113.283 270.396 113.295 270.401 113.31 270.407C113.569 270.514 113.949 270.67 114.432 270.869C115.404 271.264 116.802 271.815 118.491 272.443C120.178 273.077 122.161 273.779 124.295 274.496C125.362 274.856 126.472 275.204 127.597 275.567C128.729 275.904 129.874 276.27 131.029 276.594C132.184 276.913 133.335 277.26 134.48 277.542C135.623 277.836 136.747 278.137 137.843 278.378C138.938 278.63 139.995 278.886 141.007 279.076C142.017 279.27 142.968 279.494 143.855 279.627C144.742 279.775 145.554 279.911 146.274 280.031C146.996 280.14 147.628 280.209 148.147 280.28C149.188 280.412 149.782 280.489 149.782 280.489C149.782 280.489 149.184 280.451 148.138 280.385C147.616 280.349 146.979 280.32 146.251 280.258C145.524 280.184 144.703 280.1 143.808 280.009C142.91 279.933 141.947 279.771 140.923 279.642C139.897 279.516 138.824 279.329 137.711 279.146C136.596 278.974 135.453 278.746 134.288 278.525C133.121 278.315 131.948 278.042 130.767 277.795C129.588 277.544 128.418 277.251 127.26 276.985C126.109 276.693 124.973 276.414 123.879 276.121C121.69 275.538 119.654 274.96 117.917 274.43C116.179 273.906 114.738 273.441 113.729 273.103L113.749 273.281C113.763 273.37 113.767 273.523 113.77 273.662L113.775 274.081C113.745 274.355 113.742 274.615 113.666 274.895C113.564 275.44 113.282 276.016 112.876 276.448C112.47 276.886 111.936 277.164 111.436 277.262C110.933 277.371 110.443 277.372 109.991 277.294C109.531 277.232 109.108 277.089 108.696 276.932C107.065 276.266 105.766 275.105 104.651 273.829C104.104 273.178 103.599 272.493 103.153 271.768C102.717 271.038 102.308 270.293 101.966 269.514C101.755 269.06 101.569 268.595 101.394 268.125C101.504 268.728 101.606 269.334 101.69 269.944C101.811 270.849 101.9 271.762 101.933 272.694C101.943 273.63 101.941 274.573 101.623 275.599C101.581 275.728 101.538 275.856 101.469 275.988L101.374 276.183L101.245 276.378C101.167 276.509 101.043 276.63 100.921 276.746C100.865 276.808 100.785 276.851 100.713 276.899L100.6 276.968L100.543 277.001C100.504 277.017 100.589 276.989 100.449 277.04L100.431 277.047L100.282 277.099C100.253 277.108 100.243 277.116 100.197 277.125L100.058 277.149C99.965 277.162 99.8702 277.172 99.7764 277.179C99.698 277.176 99.6257 277.17 99.5499 277.163C99.2485 277.137 98.982 277.043 98.7365 276.933C97.7659 276.464 97.1145 275.706 96.5533 274.925C95.454 273.335 94.8241 271.5 94.4402 269.65C94.06 267.793 93.9241 265.896 94.0031 264.023C94.0436 262.852 94.1609 261.691 94.3295 260.541C90.0717 264.972 80.5879 275.077 78.4277 279.356C76.1809 283.806 74.5988 317.928 74.136 331.844C77.9951 333.585 83.2872 335.548 90.0348 337.108C104.513 340.455 128.8 342.576 162.539 333.811C162.218 326.442 160.315 281.171 161.108 261.243ZM81.64 309.511C79.6192 309.511 77.9751 307.734 77.9751 305.55C77.9751 303.367 79.6192 301.591 81.64 301.591C83.6608 301.591 85.3049 303.367 85.3049 305.55C85.3049 307.734 83.6608 309.511 81.64 309.511ZM87.1684 281.982C85.1476 281.982 83.5035 280.205 83.5035 278.021C83.5035 275.838 85.1476 274.062 87.1684 274.062C89.1892 274.062 90.8333 275.838 90.8333 278.021C90.8333 280.205 89.1892 281.982 87.1684 281.982ZM112.406 311.589C110.386 311.589 108.742 309.812 108.742 307.629C108.742 305.445 110.386 303.669 112.406 303.669C114.427 303.669 116.071 305.445 116.071 307.629C116.071 309.812 114.427 311.589 112.406 311.589ZM114.329 284.838C112.309 284.838 110.664 283.062 110.664 280.878C110.664 278.695 112.309 276.918 114.329 276.918C116.35 276.918 117.994 278.695 117.994 280.878C117.994 283.062 116.35 284.838 114.329 284.838Z" fill="#F1F2F2"/>
<path d="M48.3619 182.36C49.6426 179.901 51.4487 173.966 50.7132 172.048C50.643 171.864 50.623 171.864 50.5128 171.864C48.6089 171.864 45.8706 177.571 44.6196 181.427L44.2952 182.426L40.0338 181.564L40.0322 181.564C39.6786 181.909 39.142 182.437 38.4998 183.099C37.3093 184.317 35.7564 185.99 34.2666 187.732C33.5178 188.6 32.7875 189.487 32.1167 190.332C31.7769 190.751 31.4581 191.166 31.1583 191.56C30.8554 191.954 30.5704 192.326 30.3173 192.678C30.061 193.029 29.8263 193.351 29.6182 193.635C29.4163 193.926 29.2405 194.179 29.096 194.387C28.8059 194.805 28.6404 195.044 28.6404 195.044C28.6404 195.044 28.7762 194.784 29.014 194.329C29.1329 194.102 29.2774 193.825 29.4435 193.508C29.6167 193.195 29.8119 192.842 30.0246 192.458C30.2348 192.07 30.4746 191.658 30.7293 191.224C30.982 190.788 31.2505 190.329 31.5396 189.862C32.109 188.921 32.7342 187.93 33.381 186.953C34.6663 184.994 36.0281 183.089 37.0853 181.686C37.6117 180.983 38.0627 180.405 38.3815 180.001C38.4245 179.948 38.4578 179.906 38.4957 179.859C38.0944 176.955 36.7912 170.665 34.4747 169.111C33.9673 168.77 33.4543 168.715 32.8603 168.939C32.3416 169.134 31.9742 169.52 31.7026 170.153C30.8185 172.218 31.0542 176.093 32.0608 179.449C32.6179 181.307 33.0935 183.05 33.3661 184.075C33.5342 184.706 33.0904 185.368 32.4851 185.324C32.235 185.305 32.0259 185.172 31.8783 184.835C31.1747 183.23 30.7016 182.389 29.8468 180.106C29.0048 177.934 27.9782 176.088 26.9081 175.611C26.6365 175.49 26.249 175.404 25.6566 175.82C22.785 177.837 25.4331 186.111 27.1541 190.292L27.1603 190.306C27.3914 190.804 27.2141 191.434 26.7426 191.66C26.0051 192.012 25.2886 191.263 25.1262 190.872C23.5477 187.508 22.4304 187.653 22.2152 187.632C22.0722 187.621 21.9425 187.68 21.8456 187.751C21.8784 199.257 30.3393 208.935 32.1802 210.905C40.5329 201.501 48.3619 182.36 48.3619 182.36Z" fill="#FFD6A1"/>
<path d="M98.0933 253.966C97.5255 255.592 97.0509 257.272 96.6901 258.976C96.3088 260.671 96.0551 262.396 95.9675 264.122C95.8793 265.847 95.9372 267.577 96.2196 269.255C96.3575 270.094 96.5635 270.916 96.8321 271.704C97.1027 272.488 97.424 273.255 97.8448 273.928C98.2573 274.595 98.778 275.209 99.329 275.51C99.4627 275.583 99.5975 275.636 99.7108 275.653L99.7953 275.672C99.8056 275.67 99.8148 275.671 99.8251 275.677L99.842 275.688C99.8481 275.693 99.8876 275.678 99.9086 275.674L100.033 275.642L100.056 275.63C100.073 275.621 100.094 275.625 100.11 275.602C100.143 275.569 100.187 275.552 100.224 275.492L100.286 275.419L100.342 275.319C100.384 275.259 100.417 275.177 100.451 275.095C100.724 274.427 100.816 273.536 100.866 272.679C100.912 271.808 100.906 270.919 100.865 270.03C100.785 268.249 100.62 266.456 100.395 264.673L100.265 263.637L101.04 265.787C101.201 266.169 101.349 266.556 101.514 266.934C101.848 267.687 102.201 268.429 102.612 269.129C103.007 269.84 103.461 270.506 103.933 271.149C104.419 271.78 104.928 272.385 105.476 272.938C106.032 273.482 106.62 273.979 107.242 274.399C107.862 274.82 108.516 275.172 109.182 275.384C109.839 275.593 110.534 275.677 111.05 275.51C111.315 275.439 111.501 275.297 111.638 275.132C111.77 274.962 111.879 274.761 111.912 274.473C111.948 274.345 111.933 274.176 111.949 274.033L111.934 273.819C111.93 273.747 111.934 273.688 111.911 273.57L111.86 273.258L111.847 273.18L111.841 273.141L111.838 273.122L111.837 273.112C111.84 273.132 111.827 273.053 111.843 273.154L111.81 273.003L111.676 272.395C111.498 271.586 111.304 270.775 111.107 269.964C110.719 268.342 110.308 266.72 109.881 265.102C109.024 261.87 108.177 258.622 107.271 255.407L104.96 247.212L109.45 254.307C110.17 255.445 110.98 256.531 111.881 257.523C112.777 258.517 113.763 259.422 114.798 260.188C115.315 260.57 115.849 260.912 116.383 261.18C116.906 261.441 117.471 261.624 117.83 261.617C117.915 261.616 117.984 261.607 118.021 261.594C118.025 261.593 118.026 261.592 118.03 261.59C118.03 261.585 118.031 261.58 118.031 261.575C118.028 261.357 117.988 261.049 117.924 260.739C117.86 260.426 117.777 260.1 117.685 259.772C117.305 258.453 116.795 257.114 116.26 255.793C115.721 254.47 115.146 253.154 114.559 251.842C113.968 250.533 113.358 249.229 112.749 247.924C112.133 246.625 111.509 245.322 110.881 244.035L110.602 243.466L110.975 243.042C112.109 241.753 113.198 240.417 114.202 239.012C115.202 237.606 116.142 236.14 116.884 234.575C117.252 233.794 117.59 232.989 117.787 232.167C117.879 231.765 117.951 231.335 117.912 230.996C117.905 230.912 117.887 230.836 117.867 230.786C117.854 230.744 117.856 230.77 117.865 230.757C117.867 230.757 117.86 230.75 117.856 230.745C117.838 230.747 117.818 230.751 117.798 230.754C117.722 230.769 117.634 230.796 117.545 230.827C116.816 231.098 116.087 231.558 115.384 232.006C114.679 232.465 113.988 232.958 113.31 233.471C111.97 234.52 110.667 235.632 109.435 236.829C108.204 238.028 107.022 239.283 105.919 240.614C103.701 243.261 101.755 246.159 100.161 249.226C99.7907 249.951 99.4386 250.683 99.1081 251.425L99.1122 251.43C99.1106 251.431 99.105 251.436 99.1009 251.44C98.7345 252.27 98.3926 253.111 98.0933 253.966Z" fill="#FFD6A1"/>
<path d="M163.286 218.513C165.329 220.572 167.43 222.909 169.577 225.557C174.441 226.052 178.041 222.045 178.753 217.752C178.976 216.407 179.331 211.93 174.536 210.792C166.875 208.971 163.936 216.471 163.286 218.513ZM167.211 216.31C167.421 216.04 167.674 215.786 167.94 215.525C168.078 215.402 168.223 215.282 168.371 215.161C168.514 215.033 168.673 214.924 168.837 214.821C169 214.717 169.163 214.606 169.331 214.505L169.86 214.248C170.211 214.069 170.589 213.967 170.955 213.857C171.137 213.794 171.324 213.764 171.509 213.741C171.694 213.714 171.876 213.686 172.055 213.667C172.413 213.621 172.764 213.663 173.089 213.668C173.415 213.668 173.719 213.759 173.996 213.815C174.272 213.884 174.525 213.929 174.737 214.033C174.952 214.118 175.134 214.208 175.284 214.279C175.581 214.422 175.742 214.522 175.742 214.522C175.742 214.522 175.551 214.562 175.233 214.601C175.075 214.62 174.884 214.647 174.67 214.659C174.457 214.661 174.215 214.736 173.959 214.767C173.702 214.814 173.427 214.821 173.144 214.905C172.861 214.981 172.561 215.012 172.264 215.108C171.969 215.212 171.655 215.267 171.355 215.392C171.056 215.519 170.74 215.602 170.449 215.763L170 215.965C169.858 216.05 169.711 216.124 169.568 216.204C169.273 216.347 169.011 216.543 168.734 216.699C168.475 216.882 168.208 217.046 167.972 217.227C167.732 217.405 167.501 217.573 167.296 217.744C167.081 217.905 166.896 218.069 166.72 218.207C166.558 218.358 166.397 218.478 166.279 218.589C166.029 218.811 165.887 218.937 165.887 218.937C165.887 218.937 165.916 218.734 166.033 218.402C166.088 218.234 166.167 218.036 166.269 217.815C166.378 217.601 166.492 217.344 166.655 217.096C166.808 216.838 166.997 216.577 167.211 216.31Z" fill="#FFD6A1"/>
<path d="M170.246 172.502C147.378 149.597 124.737 145.435 109.76 145.98C95.2207 146.508 84.9574 151.422 82.909 152.478C79.6551 176.998 78.3175 198.932 77.9772 205.227C83.647 202.17 89.0528 200.628 94.1455 200.628C94.227 200.628 94.3075 200.628 94.3884 200.629C98.9118 200.672 102.055 201.973 103.772 202.933C105.102 198.857 110.476 195.889 117.093 195.889C119.205 195.889 121.19 196.192 122.958 196.736C122.958 196.736 127.254 197.786 130.146 202.24C130.322 202.628 130.459 203.028 130.557 203.438C132.413 203.122 136.17 202.849 141.299 204.305C146.271 205.716 153.334 209.041 161.457 216.724C162.368 214.312 164.084 211.473 166.722 209.715C166.232 196.44 167.862 183.643 170.246 172.502ZM111.771 157.763C111.771 157.763 111.404 157.798 110.804 157.794C110.656 157.789 110.487 157.805 110.307 157.808C110.13 157.808 109.938 157.808 109.733 157.808C109.322 157.834 108.871 157.817 108.378 157.843C107.892 157.86 107.365 157.879 106.808 157.899C106.531 157.92 106.248 157.937 105.96 157.944C105.67 157.967 105.375 157.978 105.075 157.983C104.774 157.993 104.468 158.007 104.157 158.004C103.846 158.023 103.528 158.012 103.209 158.029C102.569 158.057 101.915 158.108 101.267 158.22C100.618 158.32 99.9732 158.466 99.3387 158.62C98.7073 158.785 98.0825 158.949 97.485 159.141C96.8838 159.323 96.3144 159.539 95.7681 159.735C95.2254 159.94 94.7139 160.145 94.2475 160.352C93.3112 160.756 92.5542 161.158 92.0217 161.436C91.4897 161.719 91.1992 161.902 91.1992 161.902L91.0674 161.7C91.0674 161.7 92.1063 160.718 93.8816 159.567C94.7646 158.984 95.827 158.352 97.0191 157.781C97.6131 157.491 98.2383 157.212 98.8872 156.965C99.537 156.722 100.203 156.484 100.884 156.291C101.562 156.086 102.249 155.904 102.933 155.738C103.276 155.657 103.619 155.589 103.959 155.53C104.3 155.474 104.64 155.45 104.974 155.416C105.31 155.406 105.64 155.404 105.963 155.414C106.287 155.437 106.602 155.471 106.908 155.507C107.52 155.6 108.093 155.717 108.612 155.88C109.133 156.019 109.594 156.225 109.998 156.396C110.397 156.595 110.74 156.767 111.012 156.939C111.553 157.291 111.839 157.529 111.839 157.529L111.771 157.763ZM148.756 165.538C148.756 165.538 148.465 165.356 147.934 165.073C147.401 164.794 146.644 164.393 145.708 163.988C145.242 163.782 144.73 163.577 144.188 163.372C143.642 163.176 143.072 162.959 142.471 162.777C141.873 162.586 141.248 162.421 140.617 162.256C139.982 162.103 139.338 161.957 138.688 161.856C138.041 161.744 137.387 161.693 136.747 161.665C136.427 161.649 136.11 161.66 135.799 161.641C135.487 161.643 135.181 161.63 134.881 161.619C134.58 161.614 134.285 161.604 133.996 161.58C133.707 161.573 133.424 161.557 133.147 161.536C132.59 161.516 132.063 161.497 131.577 161.48C131.085 161.453 130.635 161.471 130.222 161.445C130.017 161.445 129.826 161.444 129.648 161.444C129.47 161.442 129.3 161.425 129.151 161.43C128.552 161.434 128.185 161.399 128.185 161.399L128.116 161.165C128.116 161.165 128.401 160.927 128.943 160.575C129.214 160.403 129.557 160.231 129.956 160.032C130.36 159.861 130.822 159.654 131.343 159.515C131.861 159.353 132.434 159.236 133.046 159.143C133.352 159.107 133.668 159.072 133.991 159.05C134.314 159.04 134.645 159.042 134.981 159.052C135.315 159.086 135.655 159.11 135.996 159.166C136.336 159.225 136.679 159.293 137.021 159.374C137.705 159.54 138.393 159.722 139.07 159.927C139.751 160.12 140.418 160.358 141.067 160.601C141.716 160.849 142.342 161.127 142.936 161.417C144.128 161.988 145.191 162.62 146.073 163.203C147.848 164.354 148.887 165.336 148.887 165.336L148.756 165.538Z" fill="#FFD6A1"/>
<path opacity="0.19" d="M84.4506 130.496C84.4506 130.496 67.905 122.482 58.7764 104.605C49.6477 86.7273 67.7943 85.4176 75.47 89.2075C83.1458 92.9979 102.391 91.361 107.684 70.2421C107.684 70.2421 147.4 108.07 201.221 107.262C201.221 107.262 194.348 122.378 205.296 137.533C205.296 137.533 215.406 169.223 175.888 159.723L183.724 134.194C183.724 134.194 133.517 132.961 114.689 100.905C114.689 100.905 89.5853 104.605 84.4506 130.496Z" fill="#919191"/>
<path opacity="0.19" d="M229.076 198.192C239.02 231.883 213.552 256.837 183.883 258.207C154.214 259.576 126.826 214.093 126.826 214.093C129.362 210.257 129.362 205.599 129.362 205.599L128.094 203.955C128.094 203.955 122.515 209.161 116.175 209.709C109.836 210.257 101.721 203.955 101.721 203.955C101.721 203.955 122.262 244.506 60.1335 251.63C-0.906802 258.63 2.43008 204.27 2.56589 202.364C-3.22485 273.542 71.5448 259.028 71.5448 259.028L70.2769 265.878C80.2342 265.461 88.7556 262.249 95.7968 257.986C97.1267 253.138 102.605 237.143 118.426 230.171C118.426 230.171 118.524 230.129 118.693 230.054C118.739 230.033 118.784 230.013 118.83 229.994C119.14 229.857 119.61 229.65 120.169 229.403C120.265 229.361 120.356 229.321 120.45 229.28C120.499 229.258 120.549 229.236 120.598 229.214C121.259 228.923 121.857 228.66 122.398 228.421C122.805 228.242 123.213 228.062 123.609 227.888C123.969 227.729 124.296 227.585 124.588 227.456C124.982 227.282 125.346 227.122 125.658 226.985C125.685 226.973 125.711 226.961 125.738 226.95C125.804 226.921 125.867 226.893 125.928 226.866C126.009 226.83 126.083 226.798 126.151 226.768C126.183 226.754 126.215 226.74 126.245 226.726C126.348 226.681 126.437 226.642 126.508 226.611C126.623 226.56 126.702 226.525 126.74 226.509C126.743 226.507 126.744 226.507 126.747 226.505C126.769 226.495 126.771 226.495 126.747 226.505C126.744 226.507 126.742 226.508 126.74 226.509C126.703 226.525 126.626 226.559 126.508 226.611C126.434 226.643 126.346 226.682 126.245 226.726C126.214 226.74 126.185 226.753 126.151 226.768C126.081 226.798 126.008 226.831 125.928 226.866C125.869 226.892 125.805 226.92 125.738 226.95C125.711 226.961 125.685 226.973 125.658 226.985C125.367 227.113 125.011 227.27 124.588 227.456C124.277 227.593 123.948 227.738 123.609 227.888C123.243 228.049 122.839 228.227 122.398 228.421C121.773 228.697 121.155 228.969 120.598 229.214C120.55 229.236 120.499 229.258 120.45 229.28C120.354 229.322 120.26 229.363 120.169 229.403C119.748 229.589 119.3 229.786 118.83 229.994C118.78 230.016 118.734 230.036 118.693 230.054C118.603 230.094 118.518 230.131 118.426 230.171C118.426 230.171 117.793 232.691 116.461 237.52C116.291 238.137 116.146 238.737 116.022 239.315C118.814 235.59 120.233 232.999 120.233 232.999C130.884 254.644 161.821 268.618 161.821 268.618V260.398C167.653 265.056 185.912 269.988 207.72 258.754C249.927 237.012 229.076 198.192 229.076 198.192Z" fill="#919191"/>
<path opacity="0.19" d="M2.56592 202.364C2.5675 202.346 2.56856 202.329 2.57015 202.311C2.57015 202.311 2.56856 202.33 2.56592 202.364Z" fill="#919191"/>
<path d="M82.7978 154.064C82.7978 154.064 123.041 131.62 165.887 171.624C165.887 171.624 159.753 190.791 161.421 216.553L167.526 210.51C167.526 210.51 167.791 184.501 171.082 172.309C171.082 172.309 131.771 128.812 82.7972 151.417V154.064H82.7978Z" fill="#FFD6A1"/>
<path d="M164.864 220.806C164.864 220.806 167.729 211.801 175.742 214.522C183.756 217.244 168.382 226.312 164.864 220.806Z" fill="#FFD6A1"/>
<path d="M98.5833 250.671C98.5833 250.671 100.675 269.093 111.706 276.527C111.706 276.527 105.329 275.634 101.056 267.316C101.056 267.316 102.007 283.14 96.5866 272.865C91.1659 262.59 98.5833 250.671 98.5833 250.671Z" fill="#FFD6A1"/>
<path d="M48.2214 183.811C48.2214 183.811 35.5355 203.196 32.3657 203.196C29.1959 203.196 21.2081 189.833 21.2081 189.833C21.2081 189.833 22.3494 204.64 33.3799 212.723C33.3799 212.723 46.8331 191.067 48.2214 183.811Z" fill="#FFD6A1"/>
<path d="M89.7396 181.295L91.0685 161.701C91.0685 161.701 101.563 154.294 111.326 157.547L111.771 157.764L111.326 180.032L89.7396 181.295Z" fill="url(#paint0_linear_22_595)"/>
<path d="M150.147 184.884L148.819 165.289C148.819 165.289 138.324 157.882 128.561 161.136L128.116 161.352L128.561 183.621L150.147 184.884Z" fill="url(#paint1_linear_22_595)"/>
<path d="M253.97 99.3467C250.064 95.523 243.216 85.8557 235.284 74.6588C214.425 45.2159 185.858 4.89242 164.875 1.36559C151.45 -0.890943 125.267 1.58321 99.5017 12.3476C86.2648 17.8779 75.1718 24.7726 66.53 32.8402C56.4896 42.2135 50.0762 52.9341 47.4676 64.7052C44.9276 76.1672 45.2443 87.1802 48.4085 97.4373C50.9367 105.632 55.2755 113.35 61.304 120.377C70.116 130.648 79.7853 136.314 82.6445 137.858C77.705 168.641 75.9098 199.274 75.5761 205.61C71.3721 202.308 57.9605 191.641 51.8464 185.248L50.2622 183.876C51.8315 180.981 54.088 174.14 52.9093 171.066C52.4783 169.941 51.6045 169.296 50.5123 169.296C46.8075 169.296 43.8652 176.366 42.7438 179.5L40.7928 179.104C40.352 176.116 38.9929 169.121 35.7293 166.93C34.611 166.18 33.3487 166.036 32.0787 166.513C30.942 166.94 30.0897 167.802 29.5444 169.075C29.0242 170.29 28.7956 171.921 28.8653 173.923C28.522 173.626 28.1699 173.395 27.8147 173.237C27.0219 172.883 25.7786 172.67 24.36 173.667C21.8938 175.399 21.3813 179.368 22.8758 185.153C22.7246 185.114 22.5713 185.087 22.4186 185.072C21.0026 184.94 20.0954 185.953 19.8505 186.265C19.7398 186.406 19.6567 186.572 19.6029 186.758L19.523 187.033C19.4881 187.154 19.4697 187.277 19.4687 187.401C19.3308 200.047 28.3805 210.458 30.3977 212.618C29.8745 213.119 29.3599 213.573 28.8664 213.966L27.6779 214.915L28.7511 216.012C29.0514 216.319 36.1203 223.508 43.1938 227.661C32.4211 231.336 22.3192 230.868 15.4486 226.371C6.17081 220.299 3.17064 207.588 6.77249 189.613L6.79094 189.52L4.44574 188.754L4.41345 188.842C4.0178 189.931 -5.15441 215.736 5.61014 236.556C11.8698 248.664 23.5881 256.46 40.4391 259.728C45.9885 260.804 51.4241 261.35 56.5947 261.35C61.1498 261.35 65.6008 260.925 69.8284 260.086C68.4262 269.349 64.0126 300.928 64.419 328.556L64.4287 329.234L64.9407 329.626C65.1631 329.796 70.5003 333.823 81.3535 337.354L82.5789 343.751C80.4234 342.986 77.0849 342.062 73.1607 341.874C64.4733 341.464 57.1082 344.94 51.874 351.935L50.2955 354.044L94.1804 355.192L94.3167 355.195L89.3988 339.586C97.9345 341.572 107.316 342.578 117.284 342.578C123.862 342.578 130.761 342.126 137.791 341.236L137.461 357.606L180.812 356.473L181.005 356.468L179.427 354.359C174.186 347.355 166.601 343.94 157.486 344.472C152.655 344.755 148.638 346.058 146.615 346.837L144.973 340.183C151.192 339.147 157.599 337.761 164.017 336.065L165.007 335.803L164.957 334.693C164.865 332.639 162.717 284.239 163.441 262.484C165.234 263.297 167.038 263.998 168.804 264.57C173.474 266.083 178.274 266.85 183.074 266.85C190.256 266.85 197.602 265.139 204.911 261.763C221.28 254.201 231.264 243.477 234.584 229.89C237.609 217.508 234.386 205.071 231.15 196.818C227.67 187.944 223.53 182.017 223.355 181.768L223.3 181.69L221.286 183.225L221.336 183.308C232.612 201.955 225.054 218.043 214.222 226.881C202.581 236.378 183.837 239.986 171.915 228.05C176.485 227.335 180.244 223.317 181.092 218.205C181.914 213.244 179.541 209.35 175.045 208.283C172.915 207.778 170.902 207.835 169.058 208.453C168.655 193.935 170.741 178.393 175.259 162.254C188.084 169.23 200.214 172.768 211.312 172.767C215.195 172.767 219.008 172.331 222.644 171.473C237.74 167.907 246.845 157.89 251.825 150.114C263.106 132.503 264.087 109.254 253.97 99.3467ZM55.544 351.509C60.1058 346.563 65.9693 344.22 72.9783 344.539C78.9853 344.811 83.69 347.044 83.7367 347.066L85.9455 348.14L84.0385 338.182C84.8724 338.425 85.7216 338.661 86.5672 338.883L90.8358 352.431L55.544 351.509ZM187.902 129.111C188.09 129.295 188.282 129.473 188.473 129.652C188.632 129.801 188.79 129.95 188.95 130.103C189.276 130.402 189.62 130.684 189.952 130.957C190.12 131.095 190.288 131.233 190.457 131.375C190.973 131.772 191.504 132.159 192.006 132.525L193.573 133.544L193.739 133.64C194.21 133.911 194.673 134.178 195.133 134.431C195.534 134.647 195.939 134.841 196.33 135.03L196.663 135.19C197.083 135.401 197.506 135.573 197.915 135.739L198.145 135.833C198.286 135.888 198.424 135.944 198.561 136C198.9 136.138 199.219 136.267 199.545 136.367C200.466 136.677 201.289 136.947 202.038 137.119C202.706 137.295 203.405 137.471 203.986 137.561C204.357 137.632 204.675 137.682 204.933 137.722C205.051 137.74 205.156 137.757 205.249 137.772L206.336 137.931L205.334 137.44C205.247 137.399 205.146 137.352 205.034 137.297C204.798 137.184 204.509 137.045 204.166 136.895C203.868 136.769 203.53 136.6 203.172 136.421C202.925 136.297 202.662 136.165 202.383 136.033C201.922 135.821 201.432 135.557 200.914 135.278C200.656 135.14 200.391 134.997 200.116 134.854C199.817 134.705 199.523 134.532 199.212 134.349C199.093 134.279 198.973 134.209 198.853 134.14C198.717 134.06 198.579 133.982 198.439 133.902C198.136 133.73 197.823 133.552 197.519 133.347C197.329 133.223 197.134 133.103 196.938 132.981C196.674 132.818 196.402 132.649 196.136 132.468L194.728 131.502L193.313 130.446L191.91 129.304C191.728 129.141 191.544 128.979 191.36 128.817C191.083 128.572 190.805 128.328 190.534 128.079C190.375 127.922 190.212 127.768 190.049 127.616C189.765 127.349 189.472 127.073 189.201 126.778L189.072 126.646C188.686 126.253 188.288 125.846 187.925 125.42C187.833 125.314 187.738 125.21 187.644 125.105C187.53 124.979 187.416 124.853 187.307 124.724L186.712 124.008C186.504 123.766 186.308 123.51 186.14 123.288L185.58 122.569C185.444 122.374 185.305 122.182 185.167 121.991C184.956 121.7 184.737 121.398 184.537 121.095C183.843 120.091 183.232 119.063 182.716 118.181C182.221 117.289 181.703 116.337 181.272 115.419C180.785 114.397 180.449 113.647 180.184 112.988C179.851 112.164 179.616 111.549 179.442 111.048L179.398 110.924L183.73 110.673L188.291 110.132C189.117 110.048 189.9 109.9 190.657 109.757C190.953 109.701 191.244 109.646 191.531 109.597L192.366 109.443C194.059 109.133 195.523 108.865 196.751 108.52C197.731 108.279 198.566 108.059 199.238 107.883C199.551 107.801 199.83 107.728 200.073 107.666L201.245 107.36L201.21 107.158L200.013 107.333C199.76 107.371 199.469 107.413 199.142 107.46C198.463 107.557 197.618 107.679 196.636 107.835C195.649 108.018 194.526 108.132 193.226 108.264C192.642 108.323 192.031 108.385 191.394 108.458C189.963 108.649 188.382 108.733 186.709 108.821C186.019 108.858 185.311 108.896 184.586 108.943L183.646 108.997L182.68 108.999L180.696 108.997L178.643 109.008C178.297 109.02 177.944 108.999 177.602 108.98L173.267 108.759C173.032 108.749 172.792 108.721 172.559 108.693C172.426 108.677 172.293 108.662 172.162 108.649C171.53 108.57 170.878 108.507 170.248 108.445C169.385 108.36 168.492 108.273 167.609 108.145L164.106 107.578C163.723 107.518 163.326 107.456 162.94 107.36L160.58 106.834C160.335 106.779 160.09 106.728 159.844 106.677C159.305 106.565 158.747 106.45 158.206 106.285L154.641 105.307L150.512 103.921L148.767 103.226C148.488 103.117 148.21 103.009 147.931 102.901C147.44 102.712 146.932 102.516 146.441 102.313L143.02 100.769C142.779 100.655 142.543 100.532 142.307 100.409C142.174 100.341 142.042 100.271 141.909 100.204L139.696 99.0665C139.252 98.835 138.812 98.5781 138.386 98.3294C138.106 98.1661 137.827 98.0027 137.547 97.8465C137.333 97.7225 137.117 97.6012 136.901 97.48C136.413 97.2059 135.908 96.9223 135.434 96.6084L133.376 95.3109C133.08 95.1315 132.773 94.9266 132.378 94.647L131.394 93.9631C129.017 92.3273 126.633 90.49 124.108 88.3481L122.469 86.9111C122.16 86.6403 121.858 86.3551 121.566 86.0794C121.349 85.8739 121.133 85.6701 120.915 85.4719C120.176 84.8074 119.484 84.1169 118.815 83.4491C118.549 83.1833 118.286 82.9208 118.025 82.6655C117.734 82.367 117.453 82.0669 117.174 81.7712C117.019 81.6073 116.866 81.4445 116.713 81.2839C116.295 80.8475 115.88 80.3984 115.479 79.9471L114.319 78.6608L113.254 77.4121C111.87 75.7591 110.717 74.3061 109.828 73.0934C109.028 72.0147 108.295 70.9803 107.763 70.1801C107.311 69.5023 107.082 69.1175 107.08 69.1136L106.915 69.2155C106.917 69.2193 107.11 69.6313 107.5 70.3634L107.557 70.4686C107.963 71.2189 108.518 72.2461 109.309 73.502C110.267 75.0586 111.322 76.623 112.445 78.1502C113.648 79.8292 115.128 81.6793 116.968 83.8073C118.335 85.3445 120.437 87.6509 122.902 89.9163C123.279 90.2868 123.685 90.6423 124.078 90.9856C124.253 91.139 124.429 91.2929 124.605 91.4507C124.812 91.6279 125.016 91.8101 125.222 91.9934C125.594 92.3246 125.978 92.6673 126.378 92.983C127.457 93.864 128.799 94.9604 130.182 95.94C132.677 97.7995 135.516 99.6269 138.62 101.373L140.885 102.563C141.02 102.633 141.155 102.703 141.289 102.775C141.534 102.905 141.778 103.034 142.028 103.155L145.536 104.773C146.051 104.992 146.579 105.2 147.089 105.402C147.368 105.513 147.647 105.623 147.926 105.736L149.729 106.437L153.991 107.828L157.663 108.802C158.803 109.1 159.964 109.323 161.088 109.538C161.575 109.631 162.061 109.724 162.542 109.823C162.945 109.911 163.356 109.964 163.759 110.017L167.56 110.532C167.688 110.55 167.815 110.567 167.946 110.581L172.024 110.88C172.158 110.887 172.293 110.897 172.427 110.907C172.669 110.925 172.919 110.944 173.165 110.944L177.584 110.979C177.933 110.984 178.294 110.989 178.656 110.962L178.789 110.955C178.798 111.04 178.808 111.126 178.82 111.216C178.896 111.815 178.998 112.538 179.178 113.344C179.362 114.234 179.6 115.146 179.885 116.053C180.158 116.944 180.536 117.958 181.042 119.155C181.484 120.132 182.027 121.286 182.711 122.434C183.373 123.578 184.105 124.673 184.886 125.69L184.915 125.727C185.283 126.204 185.663 126.696 186.072 127.156C184.376 130.444 180.071 139.258 175.944 151.471C173.931 157.425 172.201 163.515 170.8 169.574C160.752 159.751 149.938 152.586 138.658 148.278C129.267 144.692 119.518 143.055 109.681 143.409C96.7121 143.88 87.1033 147.698 83.422 149.402C86.622 126.247 90.6395 107.678 95.3637 94.2057C96.4871 94.0849 97.9442 93.9022 99.3628 93.5605L100.387 93.3257L102.368 92.7377L104.256 92.0433L106.027 91.2619C106.253 91.1556 106.473 91.0404 106.691 90.9258L106.862 90.8361C107.839 90.3538 108.706 89.8155 109.546 89.2944L109.874 89.0907L111.136 88.1975C111.485 87.9488 111.889 87.6531 112.249 87.3458C112.4 87.2212 112.546 87.1016 112.688 86.9859C113.192 86.5739 113.628 86.2178 113.977 85.8673C114.294 85.571 114.559 85.3102 114.772 85.1003C114.868 85.0051 114.954 84.9204 115.031 84.8456L115.922 83.9508L114.843 84.566C114.751 84.6208 114.644 84.6828 114.524 84.752C114.273 84.8977 113.965 85.0771 113.612 85.2947L113.203 85.5433L112.735 85.7931C112.522 85.9044 112.301 86.0279 112.071 86.1574C111.948 86.2267 111.822 86.297 111.69 86.3695C111.303 86.5971 110.872 86.807 110.499 86.9825L109.175 87.6415C108.931 87.7478 108.682 87.8586 108.429 87.9715C107.698 88.2971 106.943 88.6338 106.13 88.9312C106.008 88.9771 105.886 89.0259 105.764 89.0752C105.612 89.1361 105.46 89.1975 105.306 89.2529L103.575 89.841L101.759 90.3682L99.8727 90.8217L98.9051 91.01C97.7412 91.242 96.4513 91.4236 94.9619 91.5665C94.6939 91.5914 94.4259 91.6102 94.1578 91.6285L93.7053 91.4347L93.6218 91.6634C93.4029 91.6767 93.1851 91.6894 92.9714 91.7016C92.9704 91.7016 92.9688 91.7016 92.9678 91.7016C92.6952 91.7016 92.423 91.7116 92.1509 91.721C91.7681 91.7348 91.3729 91.7492 90.9824 91.7337C89.5981 91.7426 88.2502 91.6429 87.1176 91.551C85.6098 91.4003 84.4962 91.2558 83.506 91.0819C82.3073 90.8909 81.2044 90.6522 80.2845 90.4435C79.2974 90.2131 78.3851 89.9794 77.5749 89.7491L77.066 89.5962C76.4643 89.4157 75.9446 89.2601 75.4977 89.1062L75.2604 89.0253C74.7956 88.867 74.4286 88.7418 74.1683 88.6416L73.1146 88.2407L73.6097 88.6421C73.6153 88.6466 74.1852 89.1062 75.244 89.7419C76.1706 90.3072 77.7245 91.1595 79.8673 92.0078C81.0655 92.4696 82.0997 92.8152 83.1206 93.0937C84.2261 93.411 85.4833 93.689 86.8593 93.9205L87.1474 93.9637C87.7055 94.0473 88.2825 94.1342 88.8642 94.1807L89.8933 94.2782L90.9306 94.3269C91.2863 94.348 91.6404 94.3574 91.9843 94.3524L92.6726 94.3502C89.0539 104.964 85.8318 118.67 83.094 135.096C79.611 133.122 70.9452 127.683 63.1157 118.557C49.9101 103.165 45.4539 85.2554 49.8707 65.3237C54.4975 44.4446 72.4396 26.5141 100.392 14.8356C125.73 4.25008 151.382 1.79973 164.494 4.00199C184.497 7.36381 213.878 48.838 233.321 76.2819C241.654 88.0446 248.236 97.336 252.308 101.322C256.622 105.547 258.866 113.033 258.462 121.86C258.045 131.02 254.965 140.512 249.791 148.591C245.783 154.85 233.702 170.047 211.148 170.046C201.438 170.046 189.783 167.227 176.001 159.667C180.46 144.565 185.764 133.349 187.902 129.111ZM99.1803 251.506L99.2557 251.444L99.2244 251.407C99.536 250.711 99.8799 249.994 100.246 249.277C101.822 246.245 103.755 243.353 105.992 240.682C107.032 239.429 108.179 238.193 109.501 236.905C110.659 235.78 111.924 234.684 113.367 233.556C114.09 233.008 114.766 232.53 115.434 232.095C116.096 231.674 116.846 231.197 117.576 230.926C117.666 230.895 117.737 230.873 117.793 230.861C117.805 230.902 117.815 230.954 117.819 231.008C117.851 231.282 117.811 231.643 117.696 232.143C117.486 233.02 117.108 233.879 116.801 234.528C116.159 235.883 115.31 237.287 114.128 238.95C113.202 240.246 112.149 241.561 110.908 242.972L110.488 243.449L110.798 244.084C111.379 245.274 111.99 246.546 112.665 247.971L112.729 248.108C113.307 249.345 113.904 250.625 114.475 251.888C115.183 253.469 115.707 254.686 116.175 255.835C116.652 257.014 117.194 258.408 117.595 259.803C117.698 260.165 117.776 260.479 117.833 260.763C117.889 261.037 117.926 261.3 117.935 261.509C117.908 261.512 117.874 261.515 117.83 261.515C117.5 261.511 116.966 261.358 116.425 261.088C115.926 260.837 115.398 260.506 114.854 260.105C113.837 259.353 112.86 258.461 111.95 257.452C111.086 256.5 110.272 255.423 109.53 254.25L104.69 246.601L107.181 255.438C107.925 258.076 108.64 260.78 109.331 263.393L109.792 265.131C110.243 266.841 110.643 268.431 111.016 269.991C111.205 270.771 111.404 271.601 111.585 272.42L111.719 273.027L111.819 273.592C111.835 273.673 111.837 273.721 111.838 273.773L111.856 274.021C111.849 274.079 111.847 274.142 111.846 274.204C111.843 274.295 111.841 274.38 111.82 274.462C111.793 274.689 111.715 274.876 111.568 275.065C111.423 275.24 111.246 275.353 111.024 275.413C110.572 275.559 109.928 275.514 109.21 275.287C108.605 275.094 107.96 274.765 107.294 274.313C106.714 273.921 106.125 273.433 105.543 272.864C105.048 272.366 104.547 271.784 104.009 271.086C103.453 270.329 103.035 269.691 102.693 269.075C102.246 268.312 101.875 267.506 101.601 266.89C101.501 266.664 101.409 266.434 101.316 266.204C101.254 266.05 101.192 265.897 101.13 265.75L100.064 262.793L100.303 264.686C100.539 266.566 100.697 268.366 100.772 270.035C100.815 270.996 100.815 271.86 100.772 272.672C100.726 273.471 100.64 274.378 100.361 275.063C100.33 275.138 100.301 275.208 100.262 275.265L100.217 275.349L100.146 275.435C100.131 275.459 100.115 275.471 100.093 275.487C100.08 275.497 100.067 275.507 100.05 275.524L99.8927 275.573C99.8855 275.574 99.8768 275.577 99.8604 275.58C99.8404 275.571 99.8215 275.568 99.8051 275.568C99.803 275.568 99.8015 275.568 99.7994 275.568L99.7241 275.551C99.6288 275.537 99.5068 275.491 99.3715 275.418C98.8944 275.157 98.3803 274.608 97.9232 273.87C97.5542 273.279 97.2354 272.58 96.9207 271.668C96.6532 270.883 96.4487 270.066 96.3129 269.236C96.0526 267.688 95.968 265.969 96.0623 264.127C96.1458 262.476 96.3882 260.751 96.7823 258.998C97.1365 257.327 97.6075 255.646 98.182 254.002C98.4618 253.204 98.7883 252.387 99.1803 251.506ZM76.4458 275.834C80.2686 270.088 89.9097 260.434 95.5052 255.014C95.4739 255.117 95.4432 255.22 95.4124 255.323C95.3684 255.468 95.3248 255.614 95.2792 255.762C95.1167 256.325 94.9553 256.943 94.7862 257.65C92.2355 260.26 79.6664 273.255 77.0091 278.518C74.3307 283.823 72.8348 322.796 72.5483 330.989C72.2859 330.862 72.0342 330.737 71.7882 330.614C71.7165 322.584 71.6176 283.093 76.4458 275.834ZM78.5117 279.404C80.6458 275.177 90.0296 265.166 94.1932 260.826C94.0374 261.95 93.9441 262.997 93.9088 264.017C93.8278 265.948 93.9754 267.85 94.348 269.671C94.7933 271.819 95.4903 273.558 96.479 274.988C97.0048 275.719 97.6792 276.533 98.7006 277.027C98.9133 277.123 99.2014 277.236 99.5575 277.267C99.6298 277.273 99.699 277.279 99.782 277.281C99.8784 277.275 99.9762 277.264 100.074 277.25L100.215 277.226C100.252 277.218 100.27 277.211 100.288 277.204L100.481 277.136C100.527 277.119 100.563 277.107 100.588 277.089L100.589 277.09L100.809 276.957C100.872 276.917 100.937 276.876 100.986 276.822C101.098 276.714 101.238 276.58 101.324 276.436L101.459 276.229L101.554 276.036C101.626 275.896 101.671 275.762 101.715 275.63C102.049 274.55 102.039 273.519 102.03 272.688C101.999 271.828 101.919 270.925 101.785 269.928C101.746 269.644 101.702 269.349 101.65 269.032C101.728 269.216 101.805 269.391 101.882 269.557C102.186 270.249 102.565 270.969 103.076 271.824C103.5 272.515 104.007 273.212 104.584 273.899C105.941 275.45 107.238 276.444 108.667 277.026C109.064 277.178 109.499 277.328 109.978 277.393C110.468 277.478 110.966 277.467 111.455 277.36C112.006 277.252 112.549 276.945 112.945 276.519C113.354 276.083 113.652 275.498 113.759 274.921C113.816 274.71 113.834 274.508 113.851 274.312C113.857 274.239 113.863 274.166 113.872 274.077L113.867 273.657C113.863 273.517 113.86 273.359 113.845 273.266L113.843 273.247C114.746 273.548 116.145 274 117.893 274.527C119.639 275.059 121.702 275.645 123.858 276.219C124.639 276.429 125.424 276.626 126.255 276.835L127.242 277.083C127.649 277.177 128.056 277.274 128.465 277.371C129.212 277.548 129.984 277.731 130.75 277.893C131.115 277.97 131.478 278.048 131.841 278.127C132.639 278.3 133.466 278.478 134.273 278.624L134.88 278.74C135.855 278.927 136.777 279.103 137.698 279.245L138.251 279.336C139.179 279.49 140.056 279.637 140.912 279.741C141.276 279.787 141.631 279.837 141.978 279.886C142.616 279.975 143.219 280.06 143.8 280.109L146.244 280.358C146.721 280.399 147.16 280.425 147.553 280.449C147.759 280.462 147.953 280.473 148.134 280.486L149.777 280.59L149.794 280.385L148.16 280.176C147.979 280.152 147.783 280.127 147.575 280.101C147.188 280.053 146.757 279.999 146.289 279.928L143.869 279.524C143.3 279.439 142.709 279.317 142.084 279.188C141.738 279.116 141.385 279.043 141.023 278.974C140.182 278.815 139.318 278.614 138.404 278.401L137.863 278.275C136.961 278.077 136.059 277.843 135.104 277.596L134.502 277.44C133.716 277.247 132.913 277.018 132.135 276.798C131.775 276.695 131.414 276.593 131.053 276.493C130.314 276.285 129.568 276.058 128.847 275.837C128.437 275.713 128.03 275.588 127.626 275.467L126.661 275.157C125.851 274.898 125.086 274.653 124.326 274.397C122.22 273.689 120.213 272.979 118.524 272.345C116.737 271.68 115.331 271.122 114.467 270.771L113.351 270.312C113.296 270.019 113.241 269.725 113.181 269.433C112.859 267.844 112.51 266.22 112.113 264.468L111.97 263.839C111.831 263.225 111.691 262.61 111.543 262L111.197 260.586C111.941 261.305 112.666 261.913 113.409 262.44C114.095 262.923 114.742 263.306 115.39 263.613C116.147 263.947 116.907 264.241 117.909 264.229C118.225 264.215 118.491 264.166 118.745 264.076C118.916 264.019 119.058 263.954 119.191 263.871L119.25 263.837C119.303 263.807 119.353 263.777 119.418 263.727C119.504 263.66 119.588 263.587 119.67 263.51L119.789 263.391L119.92 263.231C120.154 262.933 120.228 262.71 120.294 262.508C120.411 262.093 120.409 261.79 120.408 261.519C120.388 260.983 120.301 260.553 120.213 260.159C120.132 259.803 120.03 259.435 119.895 259C119.42 257.499 118.834 256.096 118.272 254.801C117.733 253.564 117.125 252.262 116.415 250.821C115.731 249.426 115.081 248.156 114.428 246.939C113.858 245.867 113.258 244.774 112.643 243.689C113.667 242.332 114.534 241.078 115.294 239.859C115.437 239.629 115.576 239.397 115.714 239.164L115.723 239.149L116.212 239.474C117.336 240.21 118.735 241.099 120.15 241.977C122.177 243.23 124.022 244.336 125.79 245.357C126.458 245.753 127.134 246.132 127.849 246.533C128.233 246.749 128.62 246.966 129.009 247.188L132.363 249.01C132.761 249.215 133.158 249.423 133.554 249.631C134.274 250.008 135.018 250.397 135.75 250.757C136.145 250.95 136.535 251.145 136.923 251.338C137.659 251.705 138.354 252.052 139.063 252.372C139.436 252.542 139.803 252.715 140.165 252.885C140.867 253.216 141.529 253.527 142.192 253.802C142.55 253.954 142.899 254.106 143.24 254.255C143.863 254.527 144.452 254.784 145.022 255.01L147.435 255.962C147.906 256.148 148.347 256.299 148.736 256.434C148.943 256.505 149.136 256.572 149.317 256.637L150.956 257.212L151.02 257.019L149.414 256.344C149.237 256.267 149.045 256.188 148.841 256.103C148.463 255.947 148.035 255.77 147.58 255.558L145.228 254.463C144.675 254.205 144.105 253.914 143.501 253.606C143.169 253.436 142.828 253.263 142.48 253.089C141.841 252.777 141.2 252.428 140.522 252.058C140.17 251.866 139.813 251.672 139.45 251.479C138.77 251.122 138.102 250.737 137.394 250.329C137.015 250.111 136.634 249.891 136.249 249.675C135.552 249.279 134.843 248.852 134.157 248.439C133.766 248.204 133.375 247.969 132.984 247.737L129.756 245.726C129.383 245.483 129.012 245.245 128.644 245.009C127.956 244.567 127.305 244.15 126.662 243.716C124.97 242.601 123.202 241.395 121.256 240.027C119.88 239.057 118.546 238.095 117.5 237.317L116.961 236.913C117.312 236.222 117.589 235.633 117.83 235.062C118.237 234.091 118.511 233.245 118.695 232.397C118.778 231.952 118.873 231.447 118.795 230.856C118.771 230.678 118.731 230.529 118.672 230.398C118.645 230.312 118.562 230.186 118.5 230.105C118.471 230.067 118.456 230.054 118.443 230.041L118.43 230.057C118.428 230.047 118.426 230.038 118.422 230.03L118.425 230.023L118.408 230.006C118.376 229.96 118.322 229.929 118.315 229.926L118.254 229.889C118.216 229.869 118.16 229.843 118.107 229.83L118.022 229.815C117.952 229.804 117.901 229.805 117.861 229.809C117.783 229.812 117.725 229.824 117.666 229.836L117.626 229.844C117.487 229.878 117.367 229.923 117.264 229.962C116.439 230.314 115.736 230.758 114.967 231.26C114.301 231.705 113.612 232.202 112.863 232.781C111.379 233.892 110.01 235.087 108.867 236.11C107.659 237.191 106.43 238.384 105.108 239.759C102.372 242.639 100.235 245.397 98.5751 248.19C98.0457 249.07 97.5337 250.034 97.053 251.053C93.0862 254.808 79.8504 267.546 75.0564 274.753C69.9735 282.393 70.0032 321.476 70.0678 329.713C68.4795 328.848 67.4089 328.158 66.8826 327.802C66.5484 299.115 71.4131 266.044 72.4232 259.51C74.8022 258.931 77.1398 258.21 79.3727 257.368C88.7412 253.831 96.8387 248.073 103.44 240.256C111.556 230.643 115.659 219.799 115.548 213.981C116.084 214.019 116.59 214.038 117.094 214.038C117.935 214.038 118.785 213.988 119.622 213.888C121.136 217.151 128.959 233.231 141.902 246.674C147.997 253.005 154.426 257.927 161.011 261.305C160.234 281.062 162.057 324.89 162.441 333.727C128.731 342.473 104.474 340.338 90.0558 337.004C84.3209 335.677 78.9986 333.918 74.2344 331.773C74.7776 315.474 76.3679 283.65 78.5117 279.404ZM166.626 209.66C163.666 211.654 162.11 214.776 161.421 216.553C153.086 208.698 145.896 205.503 141.324 204.206C138.275 203.34 135.705 203.087 133.739 203.087C132.416 203.087 131.366 203.201 130.628 203.323C130.53 202.938 130.397 202.558 130.225 202.181C127.345 197.746 123.024 196.647 122.985 196.638C121.149 196.073 119.166 195.786 117.094 195.786C110.622 195.786 105.148 198.66 103.721 202.789C101.864 201.767 98.7626 200.568 94.3905 200.526L94.1466 200.525C89.1077 200.525 83.7033 202.049 78.0828 205.055C78.4307 198.662 79.773 176.855 82.9966 152.546C85.0307 151.503 95.3058 146.607 109.764 146.082C124.706 145.54 147.309 149.69 170.142 172.536C167.38 185.456 166.198 197.945 166.626 209.66ZM117.094 198.457C123.199 198.457 128.356 201.414 128.356 204.914C128.356 208.413 123.199 211.369 117.094 211.369C110.989 211.369 105.831 208.413 105.831 204.914C105.831 201.414 110.989 198.457 117.094 198.457ZM103.405 205.658C103.847 209.455 107.629 212.586 113.068 213.656C113.406 217.818 110.025 228.493 101.612 238.457C93.3696 248.221 74.5194 263.623 40.8758 257.098C24.7946 253.98 13.6579 246.634 7.77494 235.266C3.95528 227.884 2.38037 218.895 3.08967 208.533C4.35913 219.97 9.77472 225.781 14.1679 228.656C18.2576 231.332 23.5036 232.747 29.3384 232.747C41.2771 232.747 54.7896 226.997 65.485 217.366C78.4922 205.654 88.2559 203.196 94.1712 203.196C99.1516 203.2 102.263 204.898 103.405 205.658ZM130.732 206.013C132.131 205.757 135.789 205.363 140.883 206.843C147.144 208.663 156.944 213.743 168.078 227.605C180.311 242.833 201.904 240.28 215.713 229.014C222.338 223.608 226.918 216.415 228.61 208.76C229.319 205.548 229.531 202.232 229.24 198.894C232.162 206.688 234.92 218.065 232.191 229.222C229.073 241.965 219.568 252.087 203.939 259.307C182.686 269.124 162.404 264.242 143.657 244.794C131.749 232.442 124.267 217.803 122.172 213.416C126.882 212.207 130.149 209.382 130.732 206.013ZM163.397 218.484C164.145 216.169 167.077 209.124 174.516 210.893C179.229 212.01 178.879 216.412 178.659 217.735C177.969 221.902 174.41 225.928 169.624 225.459C167.58 222.939 165.485 220.592 163.397 218.484ZM35.0907 218.229C35.4013 217.94 35.7882 217.58 36.2018 217.164L36.9101 216.446L37.668 215.631C38.037 215.245 38.4004 214.82 38.7853 214.368C38.9606 214.163 39.1394 213.953 39.326 213.739L40.2905 212.531C40.5457 212.21 40.8097 211.879 41.0567 211.529L41.929 210.332C42.1237 210.07 42.3077 209.789 42.4855 209.517C42.5839 209.367 42.6823 209.217 42.7843 209.066C42.8827 208.915 42.9832 208.765 43.0841 208.614C43.2671 208.341 43.4557 208.059 43.631 207.769L44.43 206.431C44.8138 205.82 45.1541 205.171 45.4832 204.543C45.6318 204.26 45.7799 203.977 45.9326 203.696C45.9746 203.616 46.0177 203.535 46.0607 203.455C46.1392 203.309 46.2171 203.163 46.2893 203.013L47.2379 200.968C47.2738 200.89 47.3097 200.813 47.3456 200.736C47.4127 200.592 47.4799 200.449 47.5424 200.302L48.3168 198.353C48.6217 197.635 48.8493 196.937 49.0696 196.262L49.1701 195.955C49.2546 195.687 49.3418 195.429 49.4253 195.18C49.576 194.732 49.7185 194.31 49.8199 193.908L50.6035 190.916L50.4226 190.853L49.4402 193.77C49.3151 194.152 49.147 194.556 48.9692 194.984C48.8682 195.227 48.7637 195.478 48.6617 195.737L48.5407 196.036C48.2804 196.679 48.0108 197.344 47.6643 198.024L46.7726 199.883C46.7024 200.019 46.6276 200.154 46.5522 200.289L45.3658 202.437C45.2879 202.575 45.2028 202.709 45.1177 202.844C45.0696 202.92 45.0219 202.996 44.9758 203.071C44.8061 203.335 44.6396 203.605 44.473 203.875C44.1148 204.455 43.7437 205.055 43.3327 205.615L42.4656 206.857C42.28 207.12 42.0791 207.377 41.8854 207.626C41.7757 207.766 41.6671 207.906 41.562 208.045C41.4523 208.183 41.3463 208.323 41.2397 208.463C41.0521 208.71 40.8578 208.964 40.6549 209.198L39.7303 210.292C39.471 210.609 39.1953 210.908 38.9288 211.197L37.9263 212.281C37.7316 212.473 37.5425 212.665 37.357 212.853C36.9639 213.251 36.5923 213.627 36.2202 213.962L35.6022 214.536L34.7283 215.307C34.326 215.656 33.9678 215.944 33.6511 216.197L33.547 216.281C33.381 216.41 33.2354 216.522 33.1083 216.618C32.5569 216.11 32.007 215.593 31.5083 215.112C39.817 207.556 46.9889 191.292 49.0747 186.267L50.171 187.214C56.2646 193.572 68.6733 203.493 73.8557 207.563C70.6203 209.671 67.2721 212.278 63.9009 215.313C58.678 220.016 52.6453 223.86 46.4513 226.431C42.4158 224.471 38.0135 220.953 34.9964 218.313L35.0907 218.229ZM26.7805 191.753C27.0203 191.639 27.2028 191.424 27.294 191.15C27.3904 190.861 27.3724 190.536 27.2407 190.251C24.9693 184.733 23.2053 177.665 25.7078 175.906C26.2634 175.517 26.6211 175.595 26.8712 175.706C27.7932 176.117 28.7915 177.653 29.7581 180.145C30.3572 181.745 30.7688 182.637 31.2039 183.58C31.3904 183.984 31.5806 184.397 31.7917 184.879C31.9434 185.224 32.1679 185.403 32.478 185.425C32.7814 185.447 33.0709 185.309 33.2682 185.046C33.4784 184.765 33.5491 184.391 33.4568 184.045C33.1621 182.939 32.6963 181.238 32.1505 179.417C31.105 175.931 30.9558 172.139 31.7881 170.196C32.048 169.589 32.398 169.22 32.8905 169.035C33.4543 168.823 33.9411 168.874 34.4234 169.198C36.5908 170.651 37.9351 176.539 38.3943 179.826L38.3076 179.934C38.013 180.308 37.5578 180.889 37.01 181.621C35.7877 183.243 34.4357 185.165 33.3021 186.893C32.683 187.827 32.0628 188.807 31.4591 189.805C31.1593 190.288 30.8805 190.766 30.6473 191.169C30.409 191.575 30.1579 192.006 29.9416 192.405L29.3589 193.457L28.5558 194.993L28.7147 195.105L29.691 193.698L30.3911 192.741C30.6314 192.407 30.9 192.053 31.23 191.625C31.5052 191.262 31.8343 190.833 32.1869 190.398C32.8946 189.506 33.6167 188.632 34.3347 187.8C35.6457 186.267 37.1873 184.58 38.5639 183.172C39.1727 182.545 39.6806 182.044 40.0604 181.673L44.3567 182.543L44.7077 181.461C45.9992 177.48 48.7345 171.967 50.5113 171.967C50.5344 171.967 50.563 171.967 50.5682 171.968C50.5748 171.974 50.5902 172 50.6235 172.087C51.3523 173.988 49.5124 179.937 48.2727 182.318C48.1948 182.509 40.3971 201.448 32.1756 210.757C30.3162 208.752 21.9978 199.145 21.9384 187.807C22.0071 187.764 22.0998 187.725 22.2044 187.734L22.2526 187.737C23.1284 187.773 24.0658 188.843 25.0375 190.914C25.204 191.311 25.9631 192.144 26.7805 191.753ZM139.99 354.868L140.272 340.902C141.013 340.798 141.758 340.689 142.512 340.573L144.925 350.351L144.953 350.467L146.272 349.843C146.451 349.76 164.203 341.657 175.742 353.934L139.99 354.868Z" fill="#222222"/>
<path d="M110 156.396C109.596 156.226 109.134 156.019 108.613 155.88C108.095 155.718 107.522 155.601 106.91 155.508C106.604 155.472 106.288 155.437 105.965 155.415C105.642 155.405 105.311 155.407 104.976 155.417C104.642 155.451 104.301 155.475 103.96 155.531C103.62 155.59 103.277 155.658 102.935 155.738C102.251 155.905 101.563 156.087 100.886 156.292C100.205 156.485 99.5386 156.722 98.8888 156.966C98.2399 157.214 97.6147 157.492 97.0207 157.782C95.8286 158.353 94.7657 158.985 93.8832 159.568C92.1079 160.719 91.069 161.701 91.069 161.701L91.2007 161.902C91.2007 161.902 91.4913 161.72 92.0233 161.437C92.5558 161.159 93.3127 160.757 94.2491 160.352C94.7149 160.146 95.2269 159.941 95.7697 159.736C96.3155 159.54 96.8854 159.323 97.4866 159.141C98.0841 158.95 98.7089 158.785 99.3403 158.62C99.9747 158.467 100.619 158.321 101.269 158.22C101.916 158.108 102.57 158.057 103.21 158.029C103.53 158.013 103.848 158.024 104.158 158.005C104.47 158.007 104.776 157.994 105.077 157.983C105.377 157.978 105.672 157.968 105.961 157.945C106.25 157.937 106.533 157.921 106.81 157.9C107.367 157.88 107.893 157.861 108.38 157.844C108.872 157.817 109.323 157.835 109.735 157.809C109.94 157.809 110.131 157.808 110.309 157.808C110.488 157.806 110.657 157.789 110.806 157.795C111.406 157.798 111.772 157.764 111.772 157.764L111.842 157.529C111.842 157.529 111.556 157.292 111.015 156.94C110.741 156.767 110.399 156.596 110 156.396Z" fill="#222222"/>
<path d="M129.151 161.43C129.3 161.425 129.47 161.441 129.648 161.444C129.826 161.444 130.017 161.445 130.222 161.445C130.634 161.471 131.085 161.453 131.578 161.48C132.063 161.497 132.59 161.516 133.147 161.536C133.424 161.557 133.707 161.573 133.996 161.58C134.285 161.604 134.58 161.614 134.881 161.619C135.181 161.63 135.487 161.643 135.799 161.641C136.11 161.66 136.427 161.649 136.747 161.665C137.387 161.693 138.041 161.745 138.688 161.856C139.338 161.957 139.983 162.103 140.617 162.256C141.248 162.421 141.873 162.585 142.471 162.777C143.072 162.959 143.641 163.176 144.188 163.372C144.73 163.577 145.242 163.782 145.708 163.988C146.644 164.393 147.401 164.795 147.934 165.073C148.466 165.355 148.756 165.538 148.756 165.538L148.888 165.336C148.888 165.336 147.849 164.355 146.074 163.203C145.191 162.621 144.128 161.989 142.936 161.418C142.342 161.127 141.717 160.849 141.068 160.602C140.418 160.358 139.751 160.12 139.071 159.927C138.393 159.723 137.706 159.54 137.022 159.374C136.679 159.293 136.336 159.226 135.996 159.167C135.655 159.11 135.315 159.087 134.981 159.053C134.645 159.043 134.315 159.04 133.992 159.051C133.669 159.073 133.353 159.107 133.047 159.144C132.435 159.236 131.862 159.354 131.343 159.516C130.823 159.655 130.361 159.862 129.957 160.032C129.558 160.231 129.215 160.404 128.943 160.576C128.402 160.928 128.116 161.165 128.116 161.165L128.185 161.4C128.185 161.4 128.552 161.434 129.151 161.43Z" fill="#222222"/>
<path d="M166.033 218.402C165.917 218.734 165.887 218.937 165.887 218.937C165.887 218.937 166.03 218.811 166.279 218.589C166.398 218.478 166.559 218.358 166.72 218.207C166.896 218.069 167.081 217.905 167.296 217.744C167.502 217.573 167.732 217.405 167.973 217.227C168.209 217.046 168.475 216.882 168.734 216.699C169.012 216.543 169.274 216.346 169.569 216.204C169.712 216.125 169.859 216.051 170 215.965L170.45 215.763C170.74 215.602 171.057 215.519 171.356 215.392C171.656 215.267 171.969 215.212 172.264 215.108C172.562 215.012 172.862 214.98 173.144 214.905C173.427 214.82 173.703 214.814 173.959 214.767C174.215 214.736 174.457 214.661 174.671 214.659C174.884 214.647 175.075 214.62 175.234 214.601C175.552 214.562 175.743 214.522 175.743 214.522C175.743 214.522 175.582 214.423 175.284 214.279C175.135 214.208 174.952 214.117 174.737 214.033C174.525 213.929 174.273 213.885 173.997 213.815C173.719 213.759 173.416 213.668 173.09 213.668C172.764 213.662 172.413 213.62 172.056 213.667C171.876 213.686 171.695 213.714 171.51 213.741C171.324 213.764 171.137 213.794 170.956 213.857C170.589 213.966 170.211 214.069 169.86 214.248L169.331 214.505C169.163 214.606 169.001 214.717 168.838 214.821C168.673 214.924 168.515 215.033 168.371 215.161C168.224 215.282 168.079 215.402 167.94 215.525C167.675 215.786 167.422 216.04 167.211 216.31C166.997 216.577 166.809 216.838 166.656 217.096C166.493 217.343 166.379 217.6 166.27 217.814C166.167 218.036 166.089 218.234 166.033 218.402Z" fill="#222222"/>
<path d="M87.1684 274.062C85.1476 274.062 83.5035 275.838 83.5035 278.021C83.5035 280.205 85.1476 281.982 87.1684 281.982C89.1892 281.982 90.8333 280.205 90.8333 278.021C90.8333 275.838 89.1892 274.062 87.1684 274.062ZM87.1684 279.516C86.4058 279.516 85.7856 278.846 85.7856 278.022C85.7856 277.199 86.4058 276.528 87.1684 276.528C87.931 276.528 88.5511 277.199 88.5511 278.022C88.5511 278.845 87.9305 279.516 87.1684 279.516Z" fill="#222222"/>
<path d="M81.64 301.591C79.6193 301.591 77.9752 303.367 77.9752 305.551C77.9752 307.735 79.6193 309.511 81.64 309.511C83.6608 309.511 85.3049 307.735 85.3049 305.551C85.3049 303.367 83.6608 301.591 81.64 301.591ZM81.64 307.045C80.8774 307.045 80.2573 306.375 80.2573 305.551C80.2573 304.728 80.8774 304.057 81.64 304.057C82.4026 304.057 83.0228 304.727 83.0228 305.551C83.0228 306.374 82.4026 307.045 81.64 307.045Z" fill="#222222"/>
<path d="M112.406 303.669C110.386 303.669 108.742 305.445 108.742 307.629C108.742 309.812 110.386 311.589 112.406 311.589C114.427 311.589 116.071 309.812 116.071 307.629C116.071 305.445 114.427 303.669 112.406 303.669ZM112.406 309.123C111.644 309.123 111.024 308.453 111.024 307.629C111.024 306.805 111.644 306.135 112.406 306.135C113.169 306.135 113.789 306.805 113.789 307.629C113.789 308.453 113.169 309.123 112.406 309.123Z" fill="#222222"/>
<path d="M114.329 276.919C112.309 276.919 110.664 278.695 110.664 280.879C110.664 283.062 112.309 284.839 114.329 284.839C116.35 284.839 117.994 283.062 117.994 280.879C117.994 278.695 116.35 276.919 114.329 276.919ZM114.329 282.372C113.567 282.372 112.947 281.702 112.947 280.878C112.947 280.054 113.567 279.384 114.329 279.384C115.092 279.384 115.712 280.054 115.712 280.878C115.712 281.702 115.092 282.372 114.329 282.372Z" fill="#222222"/>
<path d="M99.4945 180.729C97.3369 180.729 95.7097 183.492 95.7097 187.156C95.7097 190.82 97.3369 193.583 99.4945 193.583C101.653 193.583 103.28 190.819 103.28 187.156C103.28 183.492 101.652 180.729 99.4945 180.729Z" fill="#222222"/>
<path d="M141.318 184.884C139.159 184.884 137.532 187.647 137.532 191.311C137.532 194.975 139.159 197.738 141.318 197.738C143.475 197.738 145.102 194.975 145.102 191.311C145.102 187.648 143.476 184.884 141.318 184.884Z" fill="#222222"/>
<defs>
<linearGradient id="paint0_linear_22_595" x1="100.755" y1="180.665" x2="100.755" y2="162.034" gradientUnits="userSpaceOnUse">
<stop offset="0.0108" stop-color="#FFD6A1"/>
<stop offset="1" stop-color="#FFD6A1"/>
</linearGradient>
<linearGradient id="paint1_linear_22_595" x1="139.131" y1="184.254" x2="139.131" y2="165.622" gradientUnits="userSpaceOnUse">
<stop offset="0.0108" stop-color="#FFD6A1"/>
<stop offset="1" stop-color="#FFD6A1"/>
</linearGradient>
</defs>
</svg>
